M48
; DRILL file {KiCad (5.1.10)-1} date 06/15/22 22:30:34
; FORMAT={-:-/ absolute / metric / decimal}
; #@! TF.CreationDate,2022-06-15T22:30:34+09:00
; #@! TF.GenerationSoftware,Kicad,Pcbnew,(5.1.10)-1
; #@! TF.FileFunction,Plated,1,4,PTH
FMAT,2
METRIC
T1C0.400
T2C0.800
T3C0.900
T4C1.000
%
G90
G05
T1
X132.271Y-130.573
X155.609Y-125.903
X158.377Y-100.422
X160.882Y-109.608
T2
X153.67Y-154.94
X153.67Y-167.64
X154.94Y-130.81
X154.94Y-133.35
X154.94Y-135.89
X154.94Y-138.43
X159.591Y-154.94
X159.591Y-167.64
X162.56Y-130.81
X162.56Y-133.35
X162.56Y-135.89
X162.56Y-138.43
X165.532Y-154.94
X165.532Y-167.64
T3
X151.885Y-148.935
X154.425Y-148.935
X157.785Y-148.935
X160.325Y-148.935
X163.685Y-148.935
X166.225Y-148.935
T4
X79.76Y-43.37
X79.76Y-45.91
X79.76Y-71.31
X79.76Y-73.85
X79.76Y-76.39
X79.76Y-78.93
X79.76Y-81.47
X79.76Y-84.01
X79.76Y-86.55
X79.76Y-89.09
X79.76Y-91.63
X79.76Y-94.17
X79.76Y-96.71
X79.76Y-99.25
X79.76Y-101.79
X79.76Y-104.33
X79.76Y-106.87
X79.76Y-109.41
X79.76Y-111.95
X79.76Y-114.49
X79.76Y-117.03
X79.76Y-119.57
X79.76Y-122.11
X79.76Y-124.65
X79.76Y-127.19
X79.76Y-129.73
X79.76Y-132.27
X79.76Y-134.81
X79.76Y-137.35
X79.76Y-139.89
X79.76Y-142.43
X79.76Y-144.97
X79.76Y-147.51
X79.76Y-150.05
X79.76Y-152.59
X79.76Y-155.13
X79.76Y-157.67
X79.76Y-160.21
X82.3Y-71.31
X82.3Y-73.85
X82.3Y-76.39
X82.3Y-78.93
X82.3Y-81.47
X82.3Y-84.01
X82.3Y-86.55
X82.3Y-89.09
X82.3Y-91.63
X82.3Y-94.17
X82.3Y-96.71
X82.3Y-99.25
X82.3Y-101.79
X82.3Y-104.33
X82.3Y-106.87
X82.3Y-109.41
X82.3Y-111.95
X82.3Y-114.49
X82.3Y-117.03
X82.3Y-119.57
X82.3Y-122.11
X82.3Y-124.65
X82.3Y-127.19
X82.3Y-129.73
X82.3Y-132.27
X82.3Y-134.81
X82.3Y-137.35
X82.3Y-139.89
X82.3Y-142.43
X82.3Y-144.97
X82.3Y-147.51
X82.3Y-150.05
X82.3Y-152.59
X82.3Y-155.13
X82.3Y-157.67
X82.3Y-160.21
X140.72Y-71.31
X140.72Y-73.85
X140.72Y-76.39
X140.72Y-78.93
X140.72Y-81.47
X140.72Y-84.01
X140.72Y-86.55
X140.72Y-89.09
X140.72Y-91.63
X140.72Y-94.17
X140.72Y-96.71
X140.72Y-99.25
X140.72Y-101.79
X140.72Y-104.33
X140.72Y-106.87
X140.72Y-109.41
X140.72Y-111.95
X140.72Y-114.49
X140.72Y-117.03
X140.72Y-119.57
X140.72Y-122.11
X140.72Y-124.65
X140.72Y-127.19
X140.72Y-129.73
X140.72Y-132.27
X140.72Y-134.81
X140.72Y-137.35
X140.72Y-139.89
X140.72Y-142.43
X140.72Y-144.97
X140.72Y-147.51
X140.72Y-150.05
X140.72Y-152.59
X140.72Y-155.13
X140.72Y-157.67
X140.72Y-160.21
X143.26Y-43.37
X143.26Y-45.91
X143.26Y-71.31
X143.26Y-73.85
X143.26Y-76.39
X143.26Y-78.93
X143.26Y-81.47
X143.26Y-84.01
X143.26Y-86.55
X143.26Y-89.09
X143.26Y-91.63
X143.26Y-94.17
X143.26Y-96.71
X143.26Y-99.25
X143.26Y-101.79
X143.26Y-104.33
X143.26Y-106.87
X143.26Y-109.41
X143.26Y-111.95
X143.26Y-114.49
X143.26Y-117.03
X143.26Y-119.57
X143.26Y-122.11
X143.26Y-124.65
X143.26Y-127.19
X143.26Y-129.73
X143.26Y-132.27
X143.26Y-134.81
X143.26Y-137.35
X143.26Y-139.89
X143.26Y-142.43
X143.26Y-144.97
X143.26Y-147.51
X143.26Y-150.05
X143.26Y-152.59
X143.26Y-155.13
X143.26Y-157.67
X143.26Y-160.21
X163.83Y-44.45
X163.83Y-46.99
X163.83Y-49.53
X163.83Y-52.07
X163.83Y-54.61
X163.83Y-57.15
X163.83Y-59.69
X163.83Y-62.23
X163.83Y-64.77
X163.83Y-67.31
X163.83Y-69.85
X163.83Y-72.39
X163.83Y-74.93
X163.83Y-77.47
X163.83Y-80.01
X163.83Y-82.55
X163.83Y-85.09
X163.83Y-91.44
X163.83Y-93.98
X163.83Y-96.52
X163.83Y-99.06
X163.83Y-101.6
X163.83Y-104.14
X163.83Y-106.68
X163.83Y-109.22
X163.83Y-111.76
X163.83Y-114.3
X163.83Y-116.84
X163.83Y-119.38
X166.37Y-44.45
X166.37Y-46.99
X166.37Y-49.53
X166.37Y-52.07
X166.37Y-54.61
X166.37Y-57.15
X166.37Y-59.69
X166.37Y-62.23
X166.37Y-64.77
X166.37Y-67.31
X166.37Y-69.85
X166.37Y-72.39
X166.37Y-74.93
X166.37Y-77.47
X166.37Y-80.01
X166.37Y-82.55
X166.37Y-85.09
X166.37Y-91.44
X166.37Y-93.98
X166.37Y-96.52
X166.37Y-99.06
X166.37Y-101.6
X166.37Y-104.14
X166.37Y-106.68
X166.37Y-109.22
X166.37Y-111.76
X166.37Y-114.3
X166.37Y-116.84
X166.37Y-119.38
T0
M30
