%TF.GenerationSoftware,KiCad,Pcbnew,(5.1.10)-1*%
%TF.CreationDate,2022-06-15T22:29:57+09:00*%
%TF.ProjectId,2022_barami,32303232-5f62-4617-9261-6d692e6b6963,rev?*%
%TF.SameCoordinates,Original*%
%TF.FileFunction,Soldermask,Top*%
%TF.FilePolarity,Negative*%
%FSLAX46Y46*%
G04 Gerber Fmt 4.6, Leading zero omitted, Abs format (unit mm)*
G04 Created by KiCad (PCBNEW (5.1.10)-1) date 2022-06-15 22:29:57*
%MOMM*%
%LPD*%
G01*
G04 APERTURE LIST*
%ADD10C,1.700000*%
%ADD11O,1.600000X1.600000*%
%ADD12C,1.600000*%
%ADD13R,1.600000X1.600000*%
%ADD14O,1.700000X1.700000*%
%ADD15R,1.700000X1.700000*%
%ADD16C,1.800000*%
%ADD17R,1.800000X1.800000*%
G04 APERTURE END LIST*
D10*
%TO.C,U1*%
X143260000Y-45910000D03*
X143260000Y-43370000D03*
X79760000Y-45910000D03*
X79760000Y-43370000D03*
X143260000Y-160210000D03*
X140720000Y-160210000D03*
X143260000Y-157670000D03*
X140720000Y-157670000D03*
X143260000Y-155130000D03*
X140720000Y-155130000D03*
X143260000Y-152590000D03*
X140720000Y-152590000D03*
X143260000Y-150050000D03*
X140720000Y-150050000D03*
X143260000Y-147510000D03*
X140720000Y-147510000D03*
X143260000Y-144970000D03*
X140720000Y-144970000D03*
X143260000Y-142430000D03*
X140720000Y-142430000D03*
X143260000Y-139890000D03*
X140720000Y-139890000D03*
X143260000Y-137350000D03*
X140720000Y-137350000D03*
X143260000Y-134810000D03*
X140720000Y-134810000D03*
X143260000Y-132270000D03*
X140720000Y-132270000D03*
X143260000Y-129730000D03*
X140720000Y-129730000D03*
X143260000Y-127190000D03*
X140720000Y-127190000D03*
X143260000Y-124650000D03*
X140720000Y-124650000D03*
X143260000Y-122110000D03*
X140720000Y-122110000D03*
X143260000Y-119570000D03*
X140720000Y-119570000D03*
X143260000Y-117030000D03*
X140720000Y-117030000D03*
X143260000Y-114490000D03*
X140720000Y-114490000D03*
X143260000Y-111950000D03*
X140720000Y-111950000D03*
X143260000Y-109410000D03*
X140720000Y-109410000D03*
X143260000Y-106870000D03*
X140720000Y-106870000D03*
X143260000Y-104330000D03*
X140720000Y-104330000D03*
X143260000Y-101790000D03*
X140720000Y-101790000D03*
X143260000Y-99250000D03*
X140720000Y-99250000D03*
X143260000Y-96710000D03*
X140720000Y-96710000D03*
X143260000Y-94170000D03*
X140720000Y-94170000D03*
X143260000Y-91630000D03*
X140720000Y-91630000D03*
X143260000Y-89090000D03*
X140720000Y-89090000D03*
X143260000Y-86550000D03*
X140720000Y-86550000D03*
X143260000Y-84010000D03*
X140720000Y-84010000D03*
X143260000Y-81470000D03*
X140720000Y-81470000D03*
X143260000Y-78930000D03*
X140720000Y-78930000D03*
X143260000Y-76390000D03*
X140720000Y-76390000D03*
X143260000Y-73850000D03*
X140720000Y-73850000D03*
X143260000Y-71310000D03*
X140720000Y-71310000D03*
X82300000Y-160210000D03*
X79760000Y-160210000D03*
X82300000Y-157670000D03*
X79760000Y-157670000D03*
X82300000Y-155130000D03*
X79760000Y-155130000D03*
X82300000Y-152590000D03*
X79760000Y-152590000D03*
X82300000Y-150050000D03*
X79760000Y-150050000D03*
X82300000Y-147510000D03*
X79760000Y-147510000D03*
X82300000Y-144970000D03*
X79760000Y-144970000D03*
X82300000Y-142430000D03*
X79760000Y-142430000D03*
X82300000Y-139890000D03*
X79760000Y-139890000D03*
X82300000Y-137350000D03*
X79760000Y-137350000D03*
X82300000Y-134810000D03*
X79760000Y-134810000D03*
X82300000Y-132270000D03*
X79760000Y-132270000D03*
X82300000Y-129730000D03*
X79760000Y-129730000D03*
X82300000Y-127190000D03*
X79760000Y-127190000D03*
X82300000Y-124650000D03*
X79760000Y-124650000D03*
X82300000Y-122110000D03*
X79760000Y-122110000D03*
X82300000Y-119570000D03*
X79760000Y-119570000D03*
X82300000Y-117030000D03*
X79760000Y-117030000D03*
X82300000Y-114490000D03*
X79760000Y-114490000D03*
X82300000Y-111950000D03*
X79760000Y-111950000D03*
X82300000Y-109410000D03*
X79760000Y-109410000D03*
X82300000Y-106870000D03*
X79760000Y-106870000D03*
X82300000Y-104330000D03*
X79760000Y-104330000D03*
X82300000Y-101790000D03*
X79760000Y-101790000D03*
X82300000Y-99250000D03*
X79760000Y-99250000D03*
X82300000Y-96710000D03*
X79760000Y-96710000D03*
X82300000Y-94170000D03*
X79760000Y-94170000D03*
X82300000Y-91630000D03*
X79760000Y-91630000D03*
X82300000Y-89090000D03*
X79760000Y-89090000D03*
X82300000Y-86550000D03*
X79760000Y-86550000D03*
X82300000Y-84010000D03*
X79760000Y-84010000D03*
X82300000Y-81470000D03*
X79760000Y-81470000D03*
X82300000Y-78930000D03*
X79760000Y-78930000D03*
X82300000Y-76390000D03*
X79760000Y-76390000D03*
X82300000Y-73850000D03*
X79760000Y-73850000D03*
X82300000Y-71310000D03*
X79760000Y-71310000D03*
%TD*%
D11*
%TO.C,R3*%
X165532000Y-154940000D03*
D12*
X165532000Y-167640000D03*
%TD*%
D11*
%TO.C,R2*%
X159591000Y-154940000D03*
D12*
X159591000Y-167640000D03*
%TD*%
D11*
%TO.C,R1*%
X153670000Y-154940000D03*
D12*
X153670000Y-167640000D03*
%TD*%
D11*
%TO.C,U2*%
X162560000Y-130810000D03*
X154940000Y-138430000D03*
X162560000Y-133350000D03*
X154940000Y-135890000D03*
X162560000Y-135890000D03*
X154940000Y-133350000D03*
X162560000Y-138430000D03*
D13*
X154940000Y-130810000D03*
%TD*%
D14*
%TO.C,J2*%
X166370000Y-119380000D03*
X163830000Y-119380000D03*
X166370000Y-116840000D03*
X163830000Y-116840000D03*
X166370000Y-114300000D03*
X163830000Y-114300000D03*
X166370000Y-111760000D03*
X163830000Y-111760000D03*
X166370000Y-109220000D03*
X163830000Y-109220000D03*
X166370000Y-106680000D03*
X163830000Y-106680000D03*
X166370000Y-104140000D03*
X163830000Y-104140000D03*
X166370000Y-101600000D03*
X163830000Y-101600000D03*
X166370000Y-99060000D03*
X163830000Y-99060000D03*
X166370000Y-96520000D03*
X163830000Y-96520000D03*
X166370000Y-93980000D03*
X163830000Y-93980000D03*
X166370000Y-91440000D03*
D15*
X163830000Y-91440000D03*
%TD*%
D16*
%TO.C,D3*%
X166225000Y-148935000D03*
D17*
X163685000Y-148935000D03*
%TD*%
D16*
%TO.C,D2*%
X160325000Y-148935000D03*
D17*
X157785000Y-148935000D03*
%TD*%
D16*
%TO.C,D1*%
X154425000Y-148935000D03*
D17*
X151885000Y-148935000D03*
%TD*%
D14*
%TO.C,J1*%
X166370000Y-85090000D03*
X163830000Y-85090000D03*
X166370000Y-82550000D03*
X163830000Y-82550000D03*
X166370000Y-80010000D03*
X163830000Y-80010000D03*
X166370000Y-77470000D03*
X163830000Y-77470000D03*
X166370000Y-74930000D03*
X163830000Y-74930000D03*
X166370000Y-72390000D03*
X163830000Y-72390000D03*
X166370000Y-69850000D03*
X163830000Y-69850000D03*
X166370000Y-67310000D03*
X163830000Y-67310000D03*
X166370000Y-64770000D03*
X163830000Y-64770000D03*
X166370000Y-62230000D03*
X163830000Y-62230000D03*
X166370000Y-59690000D03*
X163830000Y-59690000D03*
X166370000Y-57150000D03*
X163830000Y-57150000D03*
X166370000Y-54610000D03*
X163830000Y-54610000D03*
X166370000Y-52070000D03*
X163830000Y-52070000D03*
X166370000Y-49530000D03*
X163830000Y-49530000D03*
X166370000Y-46990000D03*
X163830000Y-46990000D03*
X166370000Y-44450000D03*
D15*
X163830000Y-44450000D03*
%TD*%
M02*
