%TF.GenerationSoftware,KiCad,Pcbnew,(5.1.10)-1*%
%TF.CreationDate,2022-06-15T22:29:57+09:00*%
%TF.ProjectId,2022_barami,32303232-5f62-4617-9261-6d692e6b6963,rev?*%
%TF.SameCoordinates,Original*%
%TF.FileFunction,Legend,Top*%
%TF.FilePolarity,Positive*%
%FSLAX46Y46*%
G04 Gerber Fmt 4.6, Leading zero omitted, Abs format (unit mm)*
G04 Created by KiCad (PCBNEW (5.1.10)-1) date 2022-06-15 22:29:57*
%MOMM*%
%LPD*%
G01*
G04 APERTURE LIST*
%ADD10C,0.300000*%
%ADD11C,0.150000*%
%ADD12C,0.120000*%
G04 APERTURE END LIST*
D10*
X151043571Y-170766428D02*
X151115000Y-170695000D01*
X151257857Y-170623571D01*
X151615000Y-170623571D01*
X151757857Y-170695000D01*
X151829285Y-170766428D01*
X151900714Y-170909285D01*
X151900714Y-171052142D01*
X151829285Y-171266428D01*
X150972142Y-172123571D01*
X151900714Y-172123571D01*
X152829285Y-170623571D02*
X152972142Y-170623571D01*
X153115000Y-170695000D01*
X153186428Y-170766428D01*
X153257857Y-170909285D01*
X153329285Y-171195000D01*
X153329285Y-171552142D01*
X153257857Y-171837857D01*
X153186428Y-171980714D01*
X153115000Y-172052142D01*
X152972142Y-172123571D01*
X152829285Y-172123571D01*
X152686428Y-172052142D01*
X152615000Y-171980714D01*
X152543571Y-171837857D01*
X152472142Y-171552142D01*
X152472142Y-171195000D01*
X152543571Y-170909285D01*
X152615000Y-170766428D01*
X152686428Y-170695000D01*
X152829285Y-170623571D01*
X153900714Y-170766428D02*
X153972142Y-170695000D01*
X154115000Y-170623571D01*
X154472142Y-170623571D01*
X154615000Y-170695000D01*
X154686428Y-170766428D01*
X154757857Y-170909285D01*
X154757857Y-171052142D01*
X154686428Y-171266428D01*
X153829285Y-172123571D01*
X154757857Y-172123571D01*
X155329285Y-170766428D02*
X155400714Y-170695000D01*
X155543571Y-170623571D01*
X155900714Y-170623571D01*
X156043571Y-170695000D01*
X156115000Y-170766428D01*
X156186428Y-170909285D01*
X156186428Y-171052142D01*
X156115000Y-171266428D01*
X155257857Y-172123571D01*
X156186428Y-172123571D01*
X158472142Y-171337857D02*
X158686428Y-171409285D01*
X158757857Y-171480714D01*
X158829285Y-171623571D01*
X158829285Y-171837857D01*
X158757857Y-171980714D01*
X158686428Y-172052142D01*
X158543571Y-172123571D01*
X157972142Y-172123571D01*
X157972142Y-170623571D01*
X158472142Y-170623571D01*
X158615000Y-170695000D01*
X158686428Y-170766428D01*
X158757857Y-170909285D01*
X158757857Y-171052142D01*
X158686428Y-171195000D01*
X158615000Y-171266428D01*
X158472142Y-171337857D01*
X157972142Y-171337857D01*
X160115000Y-172123571D02*
X160115000Y-171337857D01*
X160043571Y-171195000D01*
X159900714Y-171123571D01*
X159615000Y-171123571D01*
X159472142Y-171195000D01*
X160115000Y-172052142D02*
X159972142Y-172123571D01*
X159615000Y-172123571D01*
X159472142Y-172052142D01*
X159400714Y-171909285D01*
X159400714Y-171766428D01*
X159472142Y-171623571D01*
X159615000Y-171552142D01*
X159972142Y-171552142D01*
X160115000Y-171480714D01*
X160829285Y-172123571D02*
X160829285Y-171123571D01*
X160829285Y-171409285D02*
X160900714Y-171266428D01*
X160972142Y-171195000D01*
X161115000Y-171123571D01*
X161257857Y-171123571D01*
X162400714Y-172123571D02*
X162400714Y-171337857D01*
X162329285Y-171195000D01*
X162186428Y-171123571D01*
X161900714Y-171123571D01*
X161757857Y-171195000D01*
X162400714Y-172052142D02*
X162257857Y-172123571D01*
X161900714Y-172123571D01*
X161757857Y-172052142D01*
X161686428Y-171909285D01*
X161686428Y-171766428D01*
X161757857Y-171623571D01*
X161900714Y-171552142D01*
X162257857Y-171552142D01*
X162400714Y-171480714D01*
X163115000Y-172123571D02*
X163115000Y-171123571D01*
X163115000Y-171266428D02*
X163186428Y-171195000D01*
X163329285Y-171123571D01*
X163543571Y-171123571D01*
X163686428Y-171195000D01*
X163757857Y-171337857D01*
X163757857Y-172123571D01*
X163757857Y-171337857D02*
X163829285Y-171195000D01*
X163972142Y-171123571D01*
X164186428Y-171123571D01*
X164329285Y-171195000D01*
X164400714Y-171337857D01*
X164400714Y-172123571D01*
X165115000Y-172123571D02*
X165115000Y-171123571D01*
X165115000Y-170623571D02*
X165043571Y-170695000D01*
X165115000Y-170766428D01*
X165186428Y-170695000D01*
X165115000Y-170623571D01*
X165115000Y-170766428D01*
X150365000Y-173173571D02*
X150365000Y-174245000D01*
X150293571Y-174459285D01*
X150150714Y-174602142D01*
X149936428Y-174673571D01*
X149793571Y-174673571D01*
X151650714Y-174602142D02*
X151507857Y-174673571D01*
X151222142Y-174673571D01*
X151079285Y-174602142D01*
X151007857Y-174459285D01*
X151007857Y-173887857D01*
X151079285Y-173745000D01*
X151222142Y-173673571D01*
X151507857Y-173673571D01*
X151650714Y-173745000D01*
X151722142Y-173887857D01*
X151722142Y-174030714D01*
X151007857Y-174173571D01*
X152579285Y-174673571D02*
X152436428Y-174602142D01*
X152365000Y-174530714D01*
X152293571Y-174387857D01*
X152293571Y-173959285D01*
X152365000Y-173816428D01*
X152436428Y-173745000D01*
X152579285Y-173673571D01*
X152793571Y-173673571D01*
X152936428Y-173745000D01*
X153007857Y-173816428D01*
X153079285Y-173959285D01*
X153079285Y-174387857D01*
X153007857Y-174530714D01*
X152936428Y-174602142D01*
X152793571Y-174673571D01*
X152579285Y-174673571D01*
X153722142Y-173673571D02*
X153722142Y-174673571D01*
X153722142Y-173816428D02*
X153793571Y-173745000D01*
X153936428Y-173673571D01*
X154150714Y-173673571D01*
X154293571Y-173745000D01*
X154365000Y-173887857D01*
X154365000Y-174673571D01*
X155722142Y-173673571D02*
X155722142Y-174887857D01*
X155650714Y-175030714D01*
X155579285Y-175102142D01*
X155436428Y-175173571D01*
X155222142Y-175173571D01*
X155079285Y-175102142D01*
X155722142Y-174602142D02*
X155579285Y-174673571D01*
X155293571Y-174673571D01*
X155150714Y-174602142D01*
X155079285Y-174530714D01*
X155007857Y-174387857D01*
X155007857Y-173959285D01*
X155079285Y-173816428D01*
X155150714Y-173745000D01*
X155293571Y-173673571D01*
X155579285Y-173673571D01*
X155722142Y-173745000D01*
X156436428Y-174673571D02*
X156436428Y-173173571D01*
X157079285Y-174673571D02*
X157079285Y-173887857D01*
X157007857Y-173745000D01*
X156865000Y-173673571D01*
X156650714Y-173673571D01*
X156507857Y-173745000D01*
X156436428Y-173816428D01*
X157650714Y-173673571D02*
X158007857Y-174673571D01*
X158365000Y-173673571D02*
X158007857Y-174673571D01*
X157865000Y-175030714D01*
X157793571Y-175102142D01*
X157650714Y-175173571D01*
X159579285Y-173673571D02*
X159579285Y-174673571D01*
X158936428Y-173673571D02*
X158936428Y-174459285D01*
X159007857Y-174602142D01*
X159150714Y-174673571D01*
X159365000Y-174673571D01*
X159507857Y-174602142D01*
X159579285Y-174530714D01*
X160293571Y-173673571D02*
X160293571Y-174673571D01*
X160293571Y-173816428D02*
X160365000Y-173745000D01*
X160507857Y-173673571D01*
X160722142Y-173673571D01*
X160865000Y-173745000D01*
X160936428Y-173887857D01*
X160936428Y-174673571D01*
X162793571Y-174673571D02*
X162793571Y-173173571D01*
X163650714Y-174673571D02*
X163007857Y-173816428D01*
X163650714Y-173173571D02*
X162793571Y-174030714D01*
X164293571Y-174673571D02*
X164293571Y-173673571D01*
X164293571Y-173173571D02*
X164222142Y-173245000D01*
X164293571Y-173316428D01*
X164365000Y-173245000D01*
X164293571Y-173173571D01*
X164293571Y-173316428D01*
X165007857Y-174673571D02*
X165007857Y-173673571D01*
X165007857Y-173816428D02*
X165079285Y-173745000D01*
X165222142Y-173673571D01*
X165436428Y-173673571D01*
X165579285Y-173745000D01*
X165650714Y-173887857D01*
X165650714Y-174673571D01*
X165650714Y-173887857D02*
X165722142Y-173745000D01*
X165865000Y-173673571D01*
X166079285Y-173673571D01*
X166222142Y-173745000D01*
X166293571Y-173887857D01*
X166293571Y-174673571D01*
X151504761Y-144823571D02*
X150938095Y-144109285D01*
X150533333Y-144823571D02*
X150533333Y-143323571D01*
X151180952Y-143323571D01*
X151342857Y-143395000D01*
X151423809Y-143466428D01*
X151504761Y-143609285D01*
X151504761Y-143823571D01*
X151423809Y-143966428D01*
X151342857Y-144037857D01*
X151180952Y-144109285D01*
X150533333Y-144109285D01*
X152233333Y-143323571D02*
X152233333Y-144537857D01*
X152314285Y-144680714D01*
X152395238Y-144752142D01*
X152557142Y-144823571D01*
X152880952Y-144823571D01*
X153042857Y-144752142D01*
X153123809Y-144680714D01*
X153204761Y-144537857D01*
X153204761Y-143323571D01*
X154014285Y-144823571D02*
X154014285Y-143323571D01*
X154985714Y-144823571D01*
X154985714Y-143323571D01*
X157009523Y-144395000D02*
X157819047Y-144395000D01*
X156847619Y-144823571D02*
X157414285Y-143323571D01*
X157980952Y-144823571D01*
X159519047Y-144680714D02*
X159438095Y-144752142D01*
X159195238Y-144823571D01*
X159033333Y-144823571D01*
X158790476Y-144752142D01*
X158628571Y-144609285D01*
X158547619Y-144466428D01*
X158466666Y-144180714D01*
X158466666Y-143966428D01*
X158547619Y-143680714D01*
X158628571Y-143537857D01*
X158790476Y-143395000D01*
X159033333Y-143323571D01*
X159195238Y-143323571D01*
X159438095Y-143395000D01*
X159519047Y-143466428D01*
X160004761Y-143323571D02*
X160976190Y-143323571D01*
X160490476Y-144823571D02*
X160490476Y-143323571D01*
X162838095Y-144037857D02*
X163404761Y-144037857D01*
X163647619Y-144823571D02*
X162838095Y-144823571D01*
X162838095Y-143323571D01*
X163647619Y-143323571D01*
X165347619Y-144823571D02*
X164780952Y-144109285D01*
X164376190Y-144823571D02*
X164376190Y-143323571D01*
X165023809Y-143323571D01*
X165185714Y-143395000D01*
X165266666Y-143466428D01*
X165347619Y-143609285D01*
X165347619Y-143823571D01*
X165266666Y-143966428D01*
X165185714Y-144037857D01*
X165023809Y-144109285D01*
X164376190Y-144109285D01*
X167047619Y-144823571D02*
X166480952Y-144109285D01*
X166076190Y-144823571D02*
X166076190Y-143323571D01*
X166723809Y-143323571D01*
X166885714Y-143395000D01*
X166966666Y-143466428D01*
X167047619Y-143609285D01*
X167047619Y-143823571D01*
X166966666Y-143966428D01*
X166885714Y-144037857D01*
X166723809Y-144109285D01*
X166076190Y-144109285D01*
D11*
X155400476Y-44128809D02*
X155733809Y-45728809D01*
X156067142Y-44128809D01*
X156352857Y-45652619D02*
X156495714Y-45728809D01*
X156733809Y-45728809D01*
X156829047Y-45652619D01*
X156876666Y-45576428D01*
X156924285Y-45424047D01*
X156924285Y-45271666D01*
X156876666Y-45119285D01*
X156829047Y-45043095D01*
X156733809Y-44966904D01*
X156543333Y-44890714D01*
X156448095Y-44814523D01*
X156400476Y-44738333D01*
X156352857Y-44585952D01*
X156352857Y-44433571D01*
X156400476Y-44281190D01*
X156448095Y-44205000D01*
X156543333Y-44128809D01*
X156781428Y-44128809D01*
X156924285Y-44205000D01*
X155233809Y-46208000D02*
X156233809Y-46208000D01*
X156043333Y-48278809D02*
X155710000Y-47516904D01*
X155471904Y-48278809D02*
X155471904Y-46678809D01*
X155852857Y-46678809D01*
X155948095Y-46755000D01*
X155995714Y-46831190D01*
X156043333Y-46983571D01*
X156043333Y-47212142D01*
X155995714Y-47364523D01*
X155948095Y-47440714D01*
X155852857Y-47516904D01*
X155471904Y-47516904D01*
X156233809Y-46208000D02*
X157186190Y-46208000D01*
X156662380Y-46678809D02*
X156757619Y-46678809D01*
X156852857Y-46755000D01*
X156900476Y-46831190D01*
X156948095Y-46983571D01*
X156995714Y-47288333D01*
X156995714Y-47669285D01*
X156948095Y-47974047D01*
X156900476Y-48126428D01*
X156852857Y-48202619D01*
X156757619Y-48278809D01*
X156662380Y-48278809D01*
X156567142Y-48202619D01*
X156519523Y-48126428D01*
X156471904Y-47974047D01*
X156424285Y-47669285D01*
X156424285Y-47288333D01*
X156471904Y-46983571D01*
X156519523Y-46831190D01*
X156567142Y-46755000D01*
X156662380Y-46678809D01*
X155233809Y-48758000D02*
X156233809Y-48758000D01*
X156043333Y-50828809D02*
X155710000Y-50066904D01*
X155471904Y-50828809D02*
X155471904Y-49228809D01*
X155852857Y-49228809D01*
X155948095Y-49305000D01*
X155995714Y-49381190D01*
X156043333Y-49533571D01*
X156043333Y-49762142D01*
X155995714Y-49914523D01*
X155948095Y-49990714D01*
X155852857Y-50066904D01*
X155471904Y-50066904D01*
X156233809Y-48758000D02*
X157186190Y-48758000D01*
X156424285Y-49381190D02*
X156471904Y-49305000D01*
X156567142Y-49228809D01*
X156805238Y-49228809D01*
X156900476Y-49305000D01*
X156948095Y-49381190D01*
X156995714Y-49533571D01*
X156995714Y-49685952D01*
X156948095Y-49914523D01*
X156376666Y-50828809D01*
X156995714Y-50828809D01*
X156043333Y-53378809D02*
X155710000Y-52616904D01*
X155471904Y-53378809D02*
X155471904Y-51778809D01*
X155852857Y-51778809D01*
X155948095Y-51855000D01*
X155995714Y-51931190D01*
X156043333Y-52083571D01*
X156043333Y-52312142D01*
X155995714Y-52464523D01*
X155948095Y-52540714D01*
X155852857Y-52616904D01*
X155471904Y-52616904D01*
X156900476Y-52312142D02*
X156900476Y-53378809D01*
X156662380Y-51702619D02*
X156424285Y-52845476D01*
X157043333Y-52845476D01*
X156043333Y-55928809D02*
X155710000Y-55166904D01*
X155471904Y-55928809D02*
X155471904Y-54328809D01*
X155852857Y-54328809D01*
X155948095Y-54405000D01*
X155995714Y-54481190D01*
X156043333Y-54633571D01*
X156043333Y-54862142D01*
X155995714Y-55014523D01*
X155948095Y-55090714D01*
X155852857Y-55166904D01*
X155471904Y-55166904D01*
X156900476Y-54328809D02*
X156710000Y-54328809D01*
X156614761Y-54405000D01*
X156567142Y-54481190D01*
X156471904Y-54709761D01*
X156424285Y-55014523D01*
X156424285Y-55624047D01*
X156471904Y-55776428D01*
X156519523Y-55852619D01*
X156614761Y-55928809D01*
X156805238Y-55928809D01*
X156900476Y-55852619D01*
X156948095Y-55776428D01*
X156995714Y-55624047D01*
X156995714Y-55243095D01*
X156948095Y-55090714D01*
X156900476Y-55014523D01*
X156805238Y-54938333D01*
X156614761Y-54938333D01*
X156519523Y-55014523D01*
X156471904Y-55090714D01*
X156424285Y-55243095D01*
X155233809Y-56408000D02*
X156233809Y-56408000D01*
X155995714Y-56955000D02*
X155900476Y-56878809D01*
X155757619Y-56878809D01*
X155614761Y-56955000D01*
X155519523Y-57107380D01*
X155471904Y-57259761D01*
X155424285Y-57564523D01*
X155424285Y-57793095D01*
X155471904Y-58097857D01*
X155519523Y-58250238D01*
X155614761Y-58402619D01*
X155757619Y-58478809D01*
X155852857Y-58478809D01*
X155995714Y-58402619D01*
X156043333Y-58326428D01*
X156043333Y-57793095D01*
X155852857Y-57793095D01*
X156233809Y-56408000D02*
X157186190Y-56408000D01*
X156662380Y-56878809D02*
X156757619Y-56878809D01*
X156852857Y-56955000D01*
X156900476Y-57031190D01*
X156948095Y-57183571D01*
X156995714Y-57488333D01*
X156995714Y-57869285D01*
X156948095Y-58174047D01*
X156900476Y-58326428D01*
X156852857Y-58402619D01*
X156757619Y-58478809D01*
X156662380Y-58478809D01*
X156567142Y-58402619D01*
X156519523Y-58326428D01*
X156471904Y-58174047D01*
X156424285Y-57869285D01*
X156424285Y-57488333D01*
X156471904Y-57183571D01*
X156519523Y-57031190D01*
X156567142Y-56955000D01*
X156662380Y-56878809D01*
X155995714Y-59505000D02*
X155900476Y-59428809D01*
X155757619Y-59428809D01*
X155614761Y-59505000D01*
X155519523Y-59657380D01*
X155471904Y-59809761D01*
X155424285Y-60114523D01*
X155424285Y-60343095D01*
X155471904Y-60647857D01*
X155519523Y-60800238D01*
X155614761Y-60952619D01*
X155757619Y-61028809D01*
X155852857Y-61028809D01*
X155995714Y-60952619D01*
X156043333Y-60876428D01*
X156043333Y-60343095D01*
X155852857Y-60343095D01*
X156424285Y-59581190D02*
X156471904Y-59505000D01*
X156567142Y-59428809D01*
X156805238Y-59428809D01*
X156900476Y-59505000D01*
X156948095Y-59581190D01*
X156995714Y-59733571D01*
X156995714Y-59885952D01*
X156948095Y-60114523D01*
X156376666Y-61028809D01*
X156995714Y-61028809D01*
X155995714Y-62055000D02*
X155900476Y-61978809D01*
X155757619Y-61978809D01*
X155614761Y-62055000D01*
X155519523Y-62207380D01*
X155471904Y-62359761D01*
X155424285Y-62664523D01*
X155424285Y-62893095D01*
X155471904Y-63197857D01*
X155519523Y-63350238D01*
X155614761Y-63502619D01*
X155757619Y-63578809D01*
X155852857Y-63578809D01*
X155995714Y-63502619D01*
X156043333Y-63426428D01*
X156043333Y-62893095D01*
X155852857Y-62893095D01*
X156900476Y-62512142D02*
X156900476Y-63578809D01*
X156662380Y-61902619D02*
X156424285Y-63045476D01*
X157043333Y-63045476D01*
X155995714Y-64605000D02*
X155900476Y-64528809D01*
X155757619Y-64528809D01*
X155614761Y-64605000D01*
X155519523Y-64757380D01*
X155471904Y-64909761D01*
X155424285Y-65214523D01*
X155424285Y-65443095D01*
X155471904Y-65747857D01*
X155519523Y-65900238D01*
X155614761Y-66052619D01*
X155757619Y-66128809D01*
X155852857Y-66128809D01*
X155995714Y-66052619D01*
X156043333Y-65976428D01*
X156043333Y-65443095D01*
X155852857Y-65443095D01*
X156900476Y-64528809D02*
X156710000Y-64528809D01*
X156614761Y-64605000D01*
X156567142Y-64681190D01*
X156471904Y-64909761D01*
X156424285Y-65214523D01*
X156424285Y-65824047D01*
X156471904Y-65976428D01*
X156519523Y-66052619D01*
X156614761Y-66128809D01*
X156805238Y-66128809D01*
X156900476Y-66052619D01*
X156948095Y-65976428D01*
X156995714Y-65824047D01*
X156995714Y-65443095D01*
X156948095Y-65290714D01*
X156900476Y-65214523D01*
X156805238Y-65138333D01*
X156614761Y-65138333D01*
X156519523Y-65214523D01*
X156471904Y-65290714D01*
X156424285Y-65443095D01*
X155376666Y-67840714D02*
X155519523Y-67916904D01*
X155567142Y-67993095D01*
X155614761Y-68145476D01*
X155614761Y-68374047D01*
X155567142Y-68526428D01*
X155519523Y-68602619D01*
X155424285Y-68678809D01*
X155043333Y-68678809D01*
X155043333Y-67078809D01*
X155376666Y-67078809D01*
X155471904Y-67155000D01*
X155519523Y-67231190D01*
X155567142Y-67383571D01*
X155567142Y-67535952D01*
X155519523Y-67688333D01*
X155471904Y-67764523D01*
X155376666Y-67840714D01*
X155043333Y-67840714D01*
X156519523Y-68678809D02*
X156043333Y-68678809D01*
X156043333Y-67078809D01*
X156852857Y-68678809D02*
X156852857Y-67078809D01*
X157424285Y-68678809D02*
X156995714Y-67764523D01*
X157424285Y-67078809D02*
X156852857Y-67993095D01*
X155448095Y-69705000D02*
X155352857Y-69628809D01*
X155210000Y-69628809D01*
X155067142Y-69705000D01*
X154971904Y-69857380D01*
X154924285Y-70009761D01*
X154876666Y-70314523D01*
X154876666Y-70543095D01*
X154924285Y-70847857D01*
X154971904Y-71000238D01*
X155067142Y-71152619D01*
X155210000Y-71228809D01*
X155305238Y-71228809D01*
X155448095Y-71152619D01*
X155495714Y-71076428D01*
X155495714Y-70543095D01*
X155305238Y-70543095D01*
X155924285Y-71228809D02*
X155924285Y-69628809D01*
X156495714Y-71228809D01*
X156495714Y-69628809D01*
X156971904Y-71228809D02*
X156971904Y-69628809D01*
X157210000Y-69628809D01*
X157352857Y-69705000D01*
X157448095Y-69857380D01*
X157495714Y-70009761D01*
X157543333Y-70314523D01*
X157543333Y-70543095D01*
X157495714Y-70847857D01*
X157448095Y-71000238D01*
X157352857Y-71152619D01*
X157210000Y-71228809D01*
X156971904Y-71228809D01*
X154971904Y-72178809D02*
X155590952Y-72178809D01*
X155257619Y-72788333D01*
X155400476Y-72788333D01*
X155495714Y-72864523D01*
X155543333Y-72940714D01*
X155590952Y-73093095D01*
X155590952Y-73474047D01*
X155543333Y-73626428D01*
X155495714Y-73702619D01*
X155400476Y-73778809D01*
X155114761Y-73778809D01*
X155019523Y-73702619D01*
X154971904Y-73626428D01*
X155876666Y-72178809D02*
X156210000Y-73778809D01*
X156543333Y-72178809D01*
X156781428Y-72178809D02*
X157400476Y-72178809D01*
X157067142Y-72788333D01*
X157210000Y-72788333D01*
X157305238Y-72864523D01*
X157352857Y-72940714D01*
X157400476Y-73093095D01*
X157400476Y-73474047D01*
X157352857Y-73626428D01*
X157305238Y-73702619D01*
X157210000Y-73778809D01*
X156924285Y-73778809D01*
X156829047Y-73702619D01*
X156781428Y-73626428D01*
X155448095Y-74805000D02*
X155352857Y-74728809D01*
X155210000Y-74728809D01*
X155067142Y-74805000D01*
X154971904Y-74957380D01*
X154924285Y-75109761D01*
X154876666Y-75414523D01*
X154876666Y-75643095D01*
X154924285Y-75947857D01*
X154971904Y-76100238D01*
X155067142Y-76252619D01*
X155210000Y-76328809D01*
X155305238Y-76328809D01*
X155448095Y-76252619D01*
X155495714Y-76176428D01*
X155495714Y-75643095D01*
X155305238Y-75643095D01*
X155924285Y-76328809D02*
X155924285Y-74728809D01*
X156495714Y-76328809D01*
X156495714Y-74728809D01*
X156971904Y-76328809D02*
X156971904Y-74728809D01*
X157210000Y-74728809D01*
X157352857Y-74805000D01*
X157448095Y-74957380D01*
X157495714Y-75109761D01*
X157543333Y-75414523D01*
X157543333Y-75643095D01*
X157495714Y-75947857D01*
X157448095Y-76100238D01*
X157352857Y-76252619D01*
X157210000Y-76328809D01*
X156971904Y-76328809D01*
X155424285Y-78878809D02*
X155424285Y-77278809D01*
X155995714Y-78878809D01*
X155995714Y-77278809D01*
X157043333Y-78726428D02*
X156995714Y-78802619D01*
X156852857Y-78878809D01*
X156757619Y-78878809D01*
X156614761Y-78802619D01*
X156519523Y-78650238D01*
X156471904Y-78497857D01*
X156424285Y-78193095D01*
X156424285Y-77964523D01*
X156471904Y-77659761D01*
X156519523Y-77507380D01*
X156614761Y-77355000D01*
X156757619Y-77278809D01*
X156852857Y-77278809D01*
X156995714Y-77355000D01*
X157043333Y-77431190D01*
X155805238Y-80590714D02*
X155948095Y-80666904D01*
X155995714Y-80743095D01*
X156043333Y-80895476D01*
X156043333Y-81124047D01*
X155995714Y-81276428D01*
X155948095Y-81352619D01*
X155852857Y-81428809D01*
X155471904Y-81428809D01*
X155471904Y-79828809D01*
X155805238Y-79828809D01*
X155900476Y-79905000D01*
X155948095Y-79981190D01*
X155995714Y-80133571D01*
X155995714Y-80285952D01*
X155948095Y-80438333D01*
X155900476Y-80514523D01*
X155805238Y-80590714D01*
X155471904Y-80590714D01*
X156948095Y-79828809D02*
X156471904Y-79828809D01*
X156424285Y-80590714D01*
X156471904Y-80514523D01*
X156567142Y-80438333D01*
X156805238Y-80438333D01*
X156900476Y-80514523D01*
X156948095Y-80590714D01*
X156995714Y-80743095D01*
X156995714Y-81124047D01*
X156948095Y-81276428D01*
X156900476Y-81352619D01*
X156805238Y-81428809D01*
X156567142Y-81428809D01*
X156471904Y-81352619D01*
X156424285Y-81276428D01*
X155805238Y-83140714D02*
X155948095Y-83216904D01*
X155995714Y-83293095D01*
X156043333Y-83445476D01*
X156043333Y-83674047D01*
X155995714Y-83826428D01*
X155948095Y-83902619D01*
X155852857Y-83978809D01*
X155471904Y-83978809D01*
X155471904Y-82378809D01*
X155805238Y-82378809D01*
X155900476Y-82455000D01*
X155948095Y-82531190D01*
X155995714Y-82683571D01*
X155995714Y-82835952D01*
X155948095Y-82988333D01*
X155900476Y-83064523D01*
X155805238Y-83140714D01*
X155471904Y-83140714D01*
X156900476Y-82378809D02*
X156710000Y-82378809D01*
X156614761Y-82455000D01*
X156567142Y-82531190D01*
X156471904Y-82759761D01*
X156424285Y-83064523D01*
X156424285Y-83674047D01*
X156471904Y-83826428D01*
X156519523Y-83902619D01*
X156614761Y-83978809D01*
X156805238Y-83978809D01*
X156900476Y-83902619D01*
X156948095Y-83826428D01*
X156995714Y-83674047D01*
X156995714Y-83293095D01*
X156948095Y-83140714D01*
X156900476Y-83064523D01*
X156805238Y-82988333D01*
X156614761Y-82988333D01*
X156519523Y-83064523D01*
X156471904Y-83140714D01*
X156424285Y-83293095D01*
X155614761Y-86376428D02*
X155567142Y-86452619D01*
X155424285Y-86528809D01*
X155329047Y-86528809D01*
X155186190Y-86452619D01*
X155090952Y-86300238D01*
X155043333Y-86147857D01*
X154995714Y-85843095D01*
X154995714Y-85614523D01*
X155043333Y-85309761D01*
X155090952Y-85157380D01*
X155186190Y-85005000D01*
X155329047Y-84928809D01*
X155424285Y-84928809D01*
X155567142Y-85005000D01*
X155614761Y-85081190D01*
X156519523Y-86528809D02*
X156043333Y-86528809D01*
X156043333Y-84928809D01*
X156852857Y-86528809D02*
X156852857Y-84928809D01*
X157424285Y-86528809D02*
X156995714Y-85614523D01*
X157424285Y-84928809D02*
X156852857Y-85843095D01*
X151003095Y-45728809D02*
X151003095Y-44128809D01*
X151003095Y-44890714D02*
X151574523Y-44890714D01*
X151574523Y-45728809D02*
X151574523Y-44128809D01*
X152003095Y-45652619D02*
X152145952Y-45728809D01*
X152384047Y-45728809D01*
X152479285Y-45652619D01*
X152526904Y-45576428D01*
X152574523Y-45424047D01*
X152574523Y-45271666D01*
X152526904Y-45119285D01*
X152479285Y-45043095D01*
X152384047Y-44966904D01*
X152193571Y-44890714D01*
X152098333Y-44814523D01*
X152050714Y-44738333D01*
X152003095Y-44585952D01*
X152003095Y-44433571D01*
X152050714Y-44281190D01*
X152098333Y-44205000D01*
X152193571Y-44128809D01*
X152431666Y-44128809D01*
X152574523Y-44205000D01*
X150788809Y-46208000D02*
X151788809Y-46208000D01*
X151598333Y-48278809D02*
X151265000Y-47516904D01*
X151026904Y-48278809D02*
X151026904Y-46678809D01*
X151407857Y-46678809D01*
X151503095Y-46755000D01*
X151550714Y-46831190D01*
X151598333Y-46983571D01*
X151598333Y-47212142D01*
X151550714Y-47364523D01*
X151503095Y-47440714D01*
X151407857Y-47516904D01*
X151026904Y-47516904D01*
X151788809Y-46208000D02*
X152741190Y-46208000D01*
X152550714Y-48278809D02*
X151979285Y-48278809D01*
X152265000Y-48278809D02*
X152265000Y-46678809D01*
X152169761Y-46907380D01*
X152074523Y-47059761D01*
X151979285Y-47135952D01*
X151598333Y-50828809D02*
X151265000Y-50066904D01*
X151026904Y-50828809D02*
X151026904Y-49228809D01*
X151407857Y-49228809D01*
X151503095Y-49305000D01*
X151550714Y-49381190D01*
X151598333Y-49533571D01*
X151598333Y-49762142D01*
X151550714Y-49914523D01*
X151503095Y-49990714D01*
X151407857Y-50066904D01*
X151026904Y-50066904D01*
X151931666Y-49228809D02*
X152550714Y-49228809D01*
X152217380Y-49838333D01*
X152360238Y-49838333D01*
X152455476Y-49914523D01*
X152503095Y-49990714D01*
X152550714Y-50143095D01*
X152550714Y-50524047D01*
X152503095Y-50676428D01*
X152455476Y-50752619D01*
X152360238Y-50828809D01*
X152074523Y-50828809D01*
X151979285Y-50752619D01*
X151931666Y-50676428D01*
X151598333Y-53378809D02*
X151265000Y-52616904D01*
X151026904Y-53378809D02*
X151026904Y-51778809D01*
X151407857Y-51778809D01*
X151503095Y-51855000D01*
X151550714Y-51931190D01*
X151598333Y-52083571D01*
X151598333Y-52312142D01*
X151550714Y-52464523D01*
X151503095Y-52540714D01*
X151407857Y-52616904D01*
X151026904Y-52616904D01*
X152503095Y-51778809D02*
X152026904Y-51778809D01*
X151979285Y-52540714D01*
X152026904Y-52464523D01*
X152122142Y-52388333D01*
X152360238Y-52388333D01*
X152455476Y-52464523D01*
X152503095Y-52540714D01*
X152550714Y-52693095D01*
X152550714Y-53074047D01*
X152503095Y-53226428D01*
X152455476Y-53302619D01*
X152360238Y-53378809D01*
X152122142Y-53378809D01*
X152026904Y-53302619D01*
X151979285Y-53226428D01*
X151598333Y-55928809D02*
X151265000Y-55166904D01*
X151026904Y-55928809D02*
X151026904Y-54328809D01*
X151407857Y-54328809D01*
X151503095Y-54405000D01*
X151550714Y-54481190D01*
X151598333Y-54633571D01*
X151598333Y-54862142D01*
X151550714Y-55014523D01*
X151503095Y-55090714D01*
X151407857Y-55166904D01*
X151026904Y-55166904D01*
X151931666Y-54328809D02*
X152598333Y-54328809D01*
X152169761Y-55928809D01*
X150788809Y-56408000D02*
X151788809Y-56408000D01*
X151550714Y-56955000D02*
X151455476Y-56878809D01*
X151312619Y-56878809D01*
X151169761Y-56955000D01*
X151074523Y-57107380D01*
X151026904Y-57259761D01*
X150979285Y-57564523D01*
X150979285Y-57793095D01*
X151026904Y-58097857D01*
X151074523Y-58250238D01*
X151169761Y-58402619D01*
X151312619Y-58478809D01*
X151407857Y-58478809D01*
X151550714Y-58402619D01*
X151598333Y-58326428D01*
X151598333Y-57793095D01*
X151407857Y-57793095D01*
X151788809Y-56408000D02*
X152741190Y-56408000D01*
X152550714Y-58478809D02*
X151979285Y-58478809D01*
X152265000Y-58478809D02*
X152265000Y-56878809D01*
X152169761Y-57107380D01*
X152074523Y-57259761D01*
X151979285Y-57335952D01*
X151550714Y-59505000D02*
X151455476Y-59428809D01*
X151312619Y-59428809D01*
X151169761Y-59505000D01*
X151074523Y-59657380D01*
X151026904Y-59809761D01*
X150979285Y-60114523D01*
X150979285Y-60343095D01*
X151026904Y-60647857D01*
X151074523Y-60800238D01*
X151169761Y-60952619D01*
X151312619Y-61028809D01*
X151407857Y-61028809D01*
X151550714Y-60952619D01*
X151598333Y-60876428D01*
X151598333Y-60343095D01*
X151407857Y-60343095D01*
X151931666Y-59428809D02*
X152550714Y-59428809D01*
X152217380Y-60038333D01*
X152360238Y-60038333D01*
X152455476Y-60114523D01*
X152503095Y-60190714D01*
X152550714Y-60343095D01*
X152550714Y-60724047D01*
X152503095Y-60876428D01*
X152455476Y-60952619D01*
X152360238Y-61028809D01*
X152074523Y-61028809D01*
X151979285Y-60952619D01*
X151931666Y-60876428D01*
X151550714Y-62055000D02*
X151455476Y-61978809D01*
X151312619Y-61978809D01*
X151169761Y-62055000D01*
X151074523Y-62207380D01*
X151026904Y-62359761D01*
X150979285Y-62664523D01*
X150979285Y-62893095D01*
X151026904Y-63197857D01*
X151074523Y-63350238D01*
X151169761Y-63502619D01*
X151312619Y-63578809D01*
X151407857Y-63578809D01*
X151550714Y-63502619D01*
X151598333Y-63426428D01*
X151598333Y-62893095D01*
X151407857Y-62893095D01*
X152503095Y-61978809D02*
X152026904Y-61978809D01*
X151979285Y-62740714D01*
X152026904Y-62664523D01*
X152122142Y-62588333D01*
X152360238Y-62588333D01*
X152455476Y-62664523D01*
X152503095Y-62740714D01*
X152550714Y-62893095D01*
X152550714Y-63274047D01*
X152503095Y-63426428D01*
X152455476Y-63502619D01*
X152360238Y-63578809D01*
X152122142Y-63578809D01*
X152026904Y-63502619D01*
X151979285Y-63426428D01*
X151550714Y-64605000D02*
X151455476Y-64528809D01*
X151312619Y-64528809D01*
X151169761Y-64605000D01*
X151074523Y-64757380D01*
X151026904Y-64909761D01*
X150979285Y-65214523D01*
X150979285Y-65443095D01*
X151026904Y-65747857D01*
X151074523Y-65900238D01*
X151169761Y-66052619D01*
X151312619Y-66128809D01*
X151407857Y-66128809D01*
X151550714Y-66052619D01*
X151598333Y-65976428D01*
X151598333Y-65443095D01*
X151407857Y-65443095D01*
X151931666Y-64528809D02*
X152598333Y-64528809D01*
X152169761Y-66128809D01*
X150788809Y-66608000D02*
X151788809Y-66608000D01*
X151360238Y-67840714D02*
X151503095Y-67916904D01*
X151550714Y-67993095D01*
X151598333Y-68145476D01*
X151598333Y-68374047D01*
X151550714Y-68526428D01*
X151503095Y-68602619D01*
X151407857Y-68678809D01*
X151026904Y-68678809D01*
X151026904Y-67078809D01*
X151360238Y-67078809D01*
X151455476Y-67155000D01*
X151503095Y-67231190D01*
X151550714Y-67383571D01*
X151550714Y-67535952D01*
X151503095Y-67688333D01*
X151455476Y-67764523D01*
X151360238Y-67840714D01*
X151026904Y-67840714D01*
X151788809Y-66608000D02*
X152741190Y-66608000D01*
X152550714Y-68678809D02*
X151979285Y-68678809D01*
X152265000Y-68678809D02*
X152265000Y-67078809D01*
X152169761Y-67307380D01*
X152074523Y-67459761D01*
X151979285Y-67535952D01*
X150788809Y-69158000D02*
X151788809Y-69158000D01*
X151360238Y-70390714D02*
X151503095Y-70466904D01*
X151550714Y-70543095D01*
X151598333Y-70695476D01*
X151598333Y-70924047D01*
X151550714Y-71076428D01*
X151503095Y-71152619D01*
X151407857Y-71228809D01*
X151026904Y-71228809D01*
X151026904Y-69628809D01*
X151360238Y-69628809D01*
X151455476Y-69705000D01*
X151503095Y-69781190D01*
X151550714Y-69933571D01*
X151550714Y-70085952D01*
X151503095Y-70238333D01*
X151455476Y-70314523D01*
X151360238Y-70390714D01*
X151026904Y-70390714D01*
X151788809Y-69158000D02*
X152741190Y-69158000D01*
X151979285Y-69781190D02*
X152026904Y-69705000D01*
X152122142Y-69628809D01*
X152360238Y-69628809D01*
X152455476Y-69705000D01*
X152503095Y-69781190D01*
X152550714Y-69933571D01*
X152550714Y-70085952D01*
X152503095Y-70314523D01*
X151931666Y-71228809D01*
X152550714Y-71228809D01*
X151360238Y-72940714D02*
X151503095Y-73016904D01*
X151550714Y-73093095D01*
X151598333Y-73245476D01*
X151598333Y-73474047D01*
X151550714Y-73626428D01*
X151503095Y-73702619D01*
X151407857Y-73778809D01*
X151026904Y-73778809D01*
X151026904Y-72178809D01*
X151360238Y-72178809D01*
X151455476Y-72255000D01*
X151503095Y-72331190D01*
X151550714Y-72483571D01*
X151550714Y-72635952D01*
X151503095Y-72788333D01*
X151455476Y-72864523D01*
X151360238Y-72940714D01*
X151026904Y-72940714D01*
X151931666Y-72178809D02*
X152550714Y-72178809D01*
X152217380Y-72788333D01*
X152360238Y-72788333D01*
X152455476Y-72864523D01*
X152503095Y-72940714D01*
X152550714Y-73093095D01*
X152550714Y-73474047D01*
X152503095Y-73626428D01*
X152455476Y-73702619D01*
X152360238Y-73778809D01*
X152074523Y-73778809D01*
X151979285Y-73702619D01*
X151931666Y-73626428D01*
X150526904Y-74728809D02*
X151145952Y-74728809D01*
X150812619Y-75338333D01*
X150955476Y-75338333D01*
X151050714Y-75414523D01*
X151098333Y-75490714D01*
X151145952Y-75643095D01*
X151145952Y-76024047D01*
X151098333Y-76176428D01*
X151050714Y-76252619D01*
X150955476Y-76328809D01*
X150669761Y-76328809D01*
X150574523Y-76252619D01*
X150526904Y-76176428D01*
X151431666Y-74728809D02*
X151765000Y-76328809D01*
X152098333Y-74728809D01*
X152336428Y-74728809D02*
X152955476Y-74728809D01*
X152622142Y-75338333D01*
X152765000Y-75338333D01*
X152860238Y-75414523D01*
X152907857Y-75490714D01*
X152955476Y-75643095D01*
X152955476Y-76024047D01*
X152907857Y-76176428D01*
X152860238Y-76252619D01*
X152765000Y-76328809D01*
X152479285Y-76328809D01*
X152384047Y-76252619D01*
X152336428Y-76176428D01*
X151003095Y-77355000D02*
X150907857Y-77278809D01*
X150765000Y-77278809D01*
X150622142Y-77355000D01*
X150526904Y-77507380D01*
X150479285Y-77659761D01*
X150431666Y-77964523D01*
X150431666Y-78193095D01*
X150479285Y-78497857D01*
X150526904Y-78650238D01*
X150622142Y-78802619D01*
X150765000Y-78878809D01*
X150860238Y-78878809D01*
X151003095Y-78802619D01*
X151050714Y-78726428D01*
X151050714Y-78193095D01*
X150860238Y-78193095D01*
X151479285Y-78878809D02*
X151479285Y-77278809D01*
X152050714Y-78878809D01*
X152050714Y-77278809D01*
X152526904Y-78878809D02*
X152526904Y-77278809D01*
X152765000Y-77278809D01*
X152907857Y-77355000D01*
X153003095Y-77507380D01*
X153050714Y-77659761D01*
X153098333Y-77964523D01*
X153098333Y-78193095D01*
X153050714Y-78497857D01*
X153003095Y-78650238D01*
X152907857Y-78802619D01*
X152765000Y-78878809D01*
X152526904Y-78878809D01*
X151360238Y-80590714D02*
X151503095Y-80666904D01*
X151550714Y-80743095D01*
X151598333Y-80895476D01*
X151598333Y-81124047D01*
X151550714Y-81276428D01*
X151503095Y-81352619D01*
X151407857Y-81428809D01*
X151026904Y-81428809D01*
X151026904Y-79828809D01*
X151360238Y-79828809D01*
X151455476Y-79905000D01*
X151503095Y-79981190D01*
X151550714Y-80133571D01*
X151550714Y-80285952D01*
X151503095Y-80438333D01*
X151455476Y-80514523D01*
X151360238Y-80590714D01*
X151026904Y-80590714D01*
X152455476Y-80362142D02*
X152455476Y-81428809D01*
X152217380Y-79752619D02*
X151979285Y-80895476D01*
X152598333Y-80895476D01*
X150788809Y-81908000D02*
X151788809Y-81908000D01*
X151360238Y-83140714D02*
X151503095Y-83216904D01*
X151550714Y-83293095D01*
X151598333Y-83445476D01*
X151598333Y-83674047D01*
X151550714Y-83826428D01*
X151503095Y-83902619D01*
X151407857Y-83978809D01*
X151026904Y-83978809D01*
X151026904Y-82378809D01*
X151360238Y-82378809D01*
X151455476Y-82455000D01*
X151503095Y-82531190D01*
X151550714Y-82683571D01*
X151550714Y-82835952D01*
X151503095Y-82988333D01*
X151455476Y-83064523D01*
X151360238Y-83140714D01*
X151026904Y-83140714D01*
X151788809Y-81908000D02*
X152741190Y-81908000D01*
X152217380Y-82378809D02*
X152312619Y-82378809D01*
X152407857Y-82455000D01*
X152455476Y-82531190D01*
X152503095Y-82683571D01*
X152550714Y-82988333D01*
X152550714Y-83369285D01*
X152503095Y-83674047D01*
X152455476Y-83826428D01*
X152407857Y-83902619D01*
X152312619Y-83978809D01*
X152217380Y-83978809D01*
X152122142Y-83902619D01*
X152074523Y-83826428D01*
X152026904Y-83674047D01*
X151979285Y-83369285D01*
X151979285Y-82988333D01*
X152026904Y-82683571D01*
X152074523Y-82531190D01*
X152122142Y-82455000D01*
X152217380Y-82378809D01*
X151360238Y-85690714D02*
X151503095Y-85766904D01*
X151550714Y-85843095D01*
X151598333Y-85995476D01*
X151598333Y-86224047D01*
X151550714Y-86376428D01*
X151503095Y-86452619D01*
X151407857Y-86528809D01*
X151026904Y-86528809D01*
X151026904Y-84928809D01*
X151360238Y-84928809D01*
X151455476Y-85005000D01*
X151503095Y-85081190D01*
X151550714Y-85233571D01*
X151550714Y-85385952D01*
X151503095Y-85538333D01*
X151455476Y-85614523D01*
X151360238Y-85690714D01*
X151026904Y-85690714D01*
X151931666Y-84928809D02*
X152598333Y-84928809D01*
X152169761Y-86528809D01*
X158932619Y-96726666D02*
X159932619Y-96726666D01*
X159932619Y-97107619D01*
X159885000Y-97202857D01*
X159837380Y-97250476D01*
X159742142Y-97298095D01*
X159599285Y-97298095D01*
X159504047Y-97250476D01*
X159456428Y-97202857D01*
X159408809Y-97107619D01*
X159408809Y-96726666D01*
X158932619Y-97726666D02*
X159932619Y-97726666D01*
X159932619Y-97964761D01*
X159885000Y-98107619D01*
X159789761Y-98202857D01*
X159694523Y-98250476D01*
X159504047Y-98298095D01*
X159361190Y-98298095D01*
X159170714Y-98250476D01*
X159075476Y-98202857D01*
X158980238Y-98107619D01*
X158932619Y-97964761D01*
X158932619Y-97726666D01*
X159932619Y-98631428D02*
X159932619Y-99250476D01*
X159551666Y-98917142D01*
X159551666Y-99060000D01*
X159504047Y-99155238D01*
X159456428Y-99202857D01*
X159361190Y-99250476D01*
X159123095Y-99250476D01*
X159027857Y-99202857D01*
X158980238Y-99155238D01*
X158932619Y-99060000D01*
X158932619Y-98774285D01*
X158980238Y-98679047D01*
X159027857Y-98631428D01*
X159313571Y-99679047D02*
X159313571Y-100440952D01*
X159932619Y-101393333D02*
X159932619Y-100917142D01*
X159456428Y-100869523D01*
X159504047Y-100917142D01*
X159551666Y-101012380D01*
X159551666Y-101250476D01*
X159504047Y-101345714D01*
X159456428Y-101393333D01*
X159361190Y-101440952D01*
X159123095Y-101440952D01*
X159027857Y-101393333D01*
X158980238Y-101345714D01*
X158932619Y-101250476D01*
X158932619Y-101012380D01*
X158980238Y-100917142D01*
X159027857Y-100869523D01*
X159932619Y-113657380D02*
X159123095Y-113657380D01*
X159027857Y-113705000D01*
X158980238Y-113752619D01*
X158932619Y-113847857D01*
X158932619Y-114038333D01*
X158980238Y-114133571D01*
X159027857Y-114181190D01*
X159123095Y-114228809D01*
X159932619Y-114228809D01*
X158980238Y-114657380D02*
X158932619Y-114800238D01*
X158932619Y-115038333D01*
X158980238Y-115133571D01*
X159027857Y-115181190D01*
X159123095Y-115228809D01*
X159218333Y-115228809D01*
X159313571Y-115181190D01*
X159361190Y-115133571D01*
X159408809Y-115038333D01*
X159456428Y-114847857D01*
X159504047Y-114752619D01*
X159551666Y-114705000D01*
X159646904Y-114657380D01*
X159742142Y-114657380D01*
X159837380Y-114705000D01*
X159885000Y-114752619D01*
X159932619Y-114847857D01*
X159932619Y-115085952D01*
X159885000Y-115228809D01*
X159218333Y-115609761D02*
X159218333Y-116085952D01*
X158932619Y-115514523D02*
X159932619Y-115847857D01*
X158932619Y-116181190D01*
X158932619Y-117085952D02*
X159408809Y-116752619D01*
X158932619Y-116514523D02*
X159932619Y-116514523D01*
X159932619Y-116895476D01*
X159885000Y-116990714D01*
X159837380Y-117038333D01*
X159742142Y-117085952D01*
X159599285Y-117085952D01*
X159504047Y-117038333D01*
X159456428Y-116990714D01*
X159408809Y-116895476D01*
X159408809Y-116514523D01*
X159932619Y-117371666D02*
X159932619Y-117943095D01*
X158932619Y-117657380D02*
X159932619Y-117657380D01*
X158932619Y-118800238D02*
X158932619Y-118228809D01*
X158932619Y-118514523D02*
X159932619Y-118514523D01*
X159789761Y-118419285D01*
X159694523Y-118324047D01*
X159646904Y-118228809D01*
X159932619Y-109553571D02*
X159932619Y-110125000D01*
X158932619Y-109839285D02*
X159932619Y-109839285D01*
X158932619Y-110458333D02*
X159932619Y-110458333D01*
X158932619Y-110934523D02*
X159932619Y-110934523D01*
X159218333Y-111267857D01*
X159932619Y-111601190D01*
X158932619Y-111601190D01*
X158932619Y-112601190D02*
X158932619Y-112029761D01*
X158932619Y-112315476D02*
X159932619Y-112315476D01*
X159789761Y-112220238D01*
X159694523Y-112125000D01*
X159646904Y-112029761D01*
X158932619Y-103957619D02*
X159932619Y-103957619D01*
X159837380Y-104386190D02*
X159885000Y-104433809D01*
X159932619Y-104529047D01*
X159932619Y-104767142D01*
X159885000Y-104862380D01*
X159837380Y-104910000D01*
X159742142Y-104957619D01*
X159646904Y-104957619D01*
X159504047Y-104910000D01*
X158932619Y-104338571D01*
X158932619Y-104957619D01*
X159027857Y-105957619D02*
X158980238Y-105910000D01*
X158932619Y-105767142D01*
X158932619Y-105671904D01*
X158980238Y-105529047D01*
X159075476Y-105433809D01*
X159170714Y-105386190D01*
X159361190Y-105338571D01*
X159504047Y-105338571D01*
X159694523Y-105386190D01*
X159789761Y-105433809D01*
X159885000Y-105529047D01*
X159932619Y-105671904D01*
X159932619Y-105767142D01*
X159885000Y-105910000D01*
X159837380Y-105957619D01*
X159837380Y-106338571D02*
X159885000Y-106386190D01*
X159932619Y-106481428D01*
X159932619Y-106719523D01*
X159885000Y-106814761D01*
X159837380Y-106862380D01*
X159742142Y-106910000D01*
X159646904Y-106910000D01*
X159504047Y-106862380D01*
X158932619Y-106290952D01*
X158932619Y-106910000D01*
X148359761Y-115165000D02*
X148407380Y-115022142D01*
X148407380Y-114784047D01*
X148359761Y-114688809D01*
X148312142Y-114641190D01*
X148216904Y-114593571D01*
X148121666Y-114593571D01*
X148026428Y-114641190D01*
X147978809Y-114688809D01*
X147931190Y-114784047D01*
X147883571Y-114974523D01*
X147835952Y-115069761D01*
X147788333Y-115117380D01*
X147693095Y-115165000D01*
X147597857Y-115165000D01*
X147502619Y-115117380D01*
X147455000Y-115069761D01*
X147407380Y-114974523D01*
X147407380Y-114736428D01*
X147455000Y-114593571D01*
X148407380Y-114165000D02*
X147407380Y-114165000D01*
X147407380Y-113784047D01*
X147455000Y-113688809D01*
X147502619Y-113641190D01*
X147597857Y-113593571D01*
X147740714Y-113593571D01*
X147835952Y-113641190D01*
X147883571Y-113688809D01*
X147931190Y-113784047D01*
X147931190Y-114165000D01*
X148407380Y-113165000D02*
X147407380Y-113165000D01*
X148407380Y-112165000D02*
X148407380Y-112736428D01*
X148407380Y-112450714D02*
X147407380Y-112450714D01*
X147550238Y-112545952D01*
X147645476Y-112641190D01*
X147693095Y-112736428D01*
X148359761Y-102393571D02*
X148407380Y-102250714D01*
X148407380Y-102012619D01*
X148359761Y-101917380D01*
X148312142Y-101869761D01*
X148216904Y-101822142D01*
X148121666Y-101822142D01*
X148026428Y-101869761D01*
X147978809Y-101917380D01*
X147931190Y-102012619D01*
X147883571Y-102203095D01*
X147835952Y-102298333D01*
X147788333Y-102345952D01*
X147693095Y-102393571D01*
X147597857Y-102393571D01*
X147502619Y-102345952D01*
X147455000Y-102298333D01*
X147407380Y-102203095D01*
X147407380Y-101965000D01*
X147455000Y-101822142D01*
X148121666Y-101441190D02*
X148121666Y-100965000D01*
X148407380Y-101536428D02*
X147407380Y-101203095D01*
X148407380Y-100869761D01*
X148407380Y-100536428D02*
X147407380Y-100536428D01*
X148407380Y-99536428D02*
X148407380Y-100107857D01*
X148407380Y-99822142D02*
X147407380Y-99822142D01*
X147550238Y-99917380D01*
X147645476Y-100012619D01*
X147693095Y-100107857D01*
D12*
X158750000Y-90170000D02*
X158750000Y-95250000D01*
X148590000Y-90170000D02*
X158750000Y-90170000D01*
X148590000Y-92710000D02*
X148590000Y-90170000D01*
X158750000Y-121285000D02*
X158750000Y-119380000D01*
X148590000Y-121285000D02*
X158750000Y-121285000D01*
X148590000Y-119380000D02*
X148590000Y-121285000D01*
X153670000Y-92710000D02*
X153670000Y-95250000D01*
X148590000Y-92710000D02*
X153670000Y-92710000D01*
X148590000Y-95250000D02*
X148590000Y-92710000D01*
X158750000Y-95250000D02*
X158750000Y-102870000D01*
X153670000Y-95250000D02*
X158750000Y-95250000D01*
X158750000Y-102870000D02*
X158750000Y-107950000D01*
X153670000Y-102870000D02*
X158750000Y-102870000D01*
X158750000Y-107950000D02*
X158750000Y-114300000D01*
X153670000Y-108585000D02*
X158750000Y-108585000D01*
X158750000Y-118745000D02*
X153670000Y-118745000D01*
X158750000Y-114300000D02*
X158750000Y-119380000D01*
X153670000Y-113665000D02*
X158750000Y-113665000D01*
X153670000Y-118745000D02*
X153670000Y-107950000D01*
X148590000Y-118745000D02*
X153670000Y-118745000D01*
X148590000Y-107950000D02*
X148590000Y-119380000D01*
X153670000Y-107950000D02*
X153670000Y-95250000D01*
X148590000Y-108585000D02*
X153670000Y-108585000D01*
X148590000Y-95250000D02*
X148590000Y-107950000D01*
D11*
X154971904Y-90458495D02*
X155590952Y-90458495D01*
X155257619Y-91087067D01*
X155400476Y-91087067D01*
X155495714Y-91165638D01*
X155543333Y-91244209D01*
X155590952Y-91401352D01*
X155590952Y-91794209D01*
X155543333Y-91951352D01*
X155495714Y-92029924D01*
X155400476Y-92108495D01*
X155114761Y-92108495D01*
X155019523Y-92029924D01*
X154971904Y-91951352D01*
X155876666Y-90458495D02*
X156210000Y-92108495D01*
X156543333Y-90458495D01*
X156781428Y-90458495D02*
X157400476Y-90458495D01*
X157067142Y-91087067D01*
X157210000Y-91087067D01*
X157305238Y-91165638D01*
X157352857Y-91244209D01*
X157400476Y-91401352D01*
X157400476Y-91794209D01*
X157352857Y-91951352D01*
X157305238Y-92029924D01*
X157210000Y-92108495D01*
X156924285Y-92108495D01*
X156829047Y-92029924D01*
X156781428Y-91951352D01*
X155424285Y-94733495D02*
X155424285Y-93083495D01*
X155995714Y-94733495D01*
X155995714Y-93083495D01*
X157043333Y-94576352D02*
X156995714Y-94654924D01*
X156852857Y-94733495D01*
X156757619Y-94733495D01*
X156614761Y-94654924D01*
X156519523Y-94497781D01*
X156471904Y-94340638D01*
X156424285Y-94026352D01*
X156424285Y-93790638D01*
X156471904Y-93476352D01*
X156519523Y-93319209D01*
X156614761Y-93162067D01*
X156757619Y-93083495D01*
X156852857Y-93083495D01*
X156995714Y-93162067D01*
X157043333Y-93240638D01*
X154662380Y-96494209D02*
X154995714Y-96494209D01*
X155138571Y-97358495D02*
X154662380Y-97358495D01*
X154662380Y-95708495D01*
X155138571Y-95708495D01*
X155471904Y-95708495D02*
X156138571Y-97358495D01*
X156138571Y-95708495D02*
X155471904Y-97358495D01*
X156376666Y-95708495D02*
X156948095Y-95708495D01*
X156662380Y-97358495D02*
X156662380Y-95708495D01*
X157805238Y-97358495D02*
X157233809Y-97358495D01*
X157519523Y-97358495D02*
X157519523Y-95708495D01*
X157424285Y-95944209D01*
X157329047Y-96101352D01*
X157233809Y-96179924D01*
X154662380Y-99119209D02*
X154995714Y-99119209D01*
X155138571Y-99983495D02*
X154662380Y-99983495D01*
X154662380Y-98333495D01*
X155138571Y-98333495D01*
X155471904Y-98333495D02*
X156138571Y-99983495D01*
X156138571Y-98333495D02*
X155471904Y-99983495D01*
X156376666Y-98333495D02*
X156948095Y-98333495D01*
X156662380Y-99983495D02*
X156662380Y-98333495D01*
X157233809Y-98490638D02*
X157281428Y-98412067D01*
X157376666Y-98333495D01*
X157614761Y-98333495D01*
X157710000Y-98412067D01*
X157757619Y-98490638D01*
X157805238Y-98647781D01*
X157805238Y-98804924D01*
X157757619Y-99040638D01*
X157186190Y-99983495D01*
X157805238Y-99983495D01*
X154662380Y-101744209D02*
X154995714Y-101744209D01*
X155138571Y-102608495D02*
X154662380Y-102608495D01*
X154662380Y-100958495D01*
X155138571Y-100958495D01*
X155471904Y-100958495D02*
X156138571Y-102608495D01*
X156138571Y-100958495D02*
X155471904Y-102608495D01*
X156376666Y-100958495D02*
X156948095Y-100958495D01*
X156662380Y-102608495D02*
X156662380Y-100958495D01*
X157186190Y-100958495D02*
X157805238Y-100958495D01*
X157471904Y-101587067D01*
X157614761Y-101587067D01*
X157710000Y-101665638D01*
X157757619Y-101744209D01*
X157805238Y-101901352D01*
X157805238Y-102294209D01*
X157757619Y-102451352D01*
X157710000Y-102529924D01*
X157614761Y-102608495D01*
X157329047Y-102608495D01*
X157233809Y-102529924D01*
X157186190Y-102451352D01*
X154995714Y-105154924D02*
X155138571Y-105233495D01*
X155376666Y-105233495D01*
X155471904Y-105154924D01*
X155519523Y-105076352D01*
X155567142Y-104919209D01*
X155567142Y-104762067D01*
X155519523Y-104604924D01*
X155471904Y-104526352D01*
X155376666Y-104447781D01*
X155186190Y-104369209D01*
X155090952Y-104290638D01*
X155043333Y-104212067D01*
X154995714Y-104054924D01*
X154995714Y-103897781D01*
X155043333Y-103740638D01*
X155090952Y-103662067D01*
X155186190Y-103583495D01*
X155424285Y-103583495D01*
X155567142Y-103662067D01*
X155995714Y-105233495D02*
X155995714Y-103583495D01*
X156233809Y-103583495D01*
X156376666Y-103662067D01*
X156471904Y-103819209D01*
X156519523Y-103976352D01*
X156567142Y-104290638D01*
X156567142Y-104526352D01*
X156519523Y-104840638D01*
X156471904Y-104997781D01*
X156376666Y-105154924D01*
X156233809Y-105233495D01*
X155995714Y-105233495D01*
X156948095Y-104762067D02*
X157424285Y-104762067D01*
X156852857Y-105233495D02*
X157186190Y-103583495D01*
X157519523Y-105233495D01*
X155019523Y-107779924D02*
X155162380Y-107858495D01*
X155400476Y-107858495D01*
X155495714Y-107779924D01*
X155543333Y-107701352D01*
X155590952Y-107544209D01*
X155590952Y-107387067D01*
X155543333Y-107229924D01*
X155495714Y-107151352D01*
X155400476Y-107072781D01*
X155210000Y-106994209D01*
X155114761Y-106915638D01*
X155067142Y-106837067D01*
X155019523Y-106679924D01*
X155019523Y-106522781D01*
X155067142Y-106365638D01*
X155114761Y-106287067D01*
X155210000Y-106208495D01*
X155448095Y-106208495D01*
X155590952Y-106287067D01*
X156590952Y-107701352D02*
X156543333Y-107779924D01*
X156400476Y-107858495D01*
X156305238Y-107858495D01*
X156162380Y-107779924D01*
X156067142Y-107622781D01*
X156019523Y-107465638D01*
X155971904Y-107151352D01*
X155971904Y-106915638D01*
X156019523Y-106601352D01*
X156067142Y-106444209D01*
X156162380Y-106287067D01*
X156305238Y-106208495D01*
X156400476Y-106208495D01*
X156543333Y-106287067D01*
X156590952Y-106365638D01*
X157495714Y-107858495D02*
X157019523Y-107858495D01*
X157019523Y-106208495D01*
X154329047Y-110483495D02*
X154329047Y-108833495D01*
X154710000Y-108833495D01*
X154805238Y-108912067D01*
X154852857Y-108990638D01*
X154900476Y-109147781D01*
X154900476Y-109383495D01*
X154852857Y-109540638D01*
X154805238Y-109619209D01*
X154710000Y-109697781D01*
X154329047Y-109697781D01*
X155233809Y-108833495D02*
X155471904Y-110483495D01*
X155662380Y-109304924D01*
X155852857Y-110483495D01*
X156090952Y-108833495D01*
X156471904Y-110483495D02*
X156471904Y-108833495D01*
X156805238Y-110012067D01*
X157138571Y-108833495D01*
X157138571Y-110483495D01*
X158138571Y-110483495D02*
X157567142Y-110483495D01*
X157852857Y-110483495D02*
X157852857Y-108833495D01*
X157757619Y-109069209D01*
X157662380Y-109226352D01*
X157567142Y-109304924D01*
X154329047Y-113108495D02*
X154329047Y-111458495D01*
X154710000Y-111458495D01*
X154805238Y-111537067D01*
X154852857Y-111615638D01*
X154900476Y-111772781D01*
X154900476Y-112008495D01*
X154852857Y-112165638D01*
X154805238Y-112244209D01*
X154710000Y-112322781D01*
X154329047Y-112322781D01*
X155233809Y-111458495D02*
X155471904Y-113108495D01*
X155662380Y-111929924D01*
X155852857Y-113108495D01*
X156090952Y-111458495D01*
X156471904Y-113108495D02*
X156471904Y-111458495D01*
X156805238Y-112637067D01*
X157138571Y-111458495D01*
X157138571Y-113108495D01*
X157519523Y-111458495D02*
X158138571Y-111458495D01*
X157805238Y-112087067D01*
X157948095Y-112087067D01*
X158043333Y-112165638D01*
X158090952Y-112244209D01*
X158138571Y-112401352D01*
X158138571Y-112794209D01*
X158090952Y-112951352D01*
X158043333Y-113029924D01*
X157948095Y-113108495D01*
X157662380Y-113108495D01*
X157567142Y-113029924D01*
X157519523Y-112951352D01*
X155448095Y-114083495D02*
X156019523Y-114083495D01*
X155733809Y-115733495D02*
X155733809Y-114083495D01*
X156257619Y-114083495D02*
X156924285Y-115733495D01*
X156924285Y-114083495D02*
X156257619Y-115733495D01*
X156043333Y-118358495D02*
X155710000Y-117572781D01*
X155471904Y-118358495D02*
X155471904Y-116708495D01*
X155852857Y-116708495D01*
X155948095Y-116787067D01*
X155995714Y-116865638D01*
X156043333Y-117022781D01*
X156043333Y-117258495D01*
X155995714Y-117415638D01*
X155948095Y-117494209D01*
X155852857Y-117572781D01*
X155471904Y-117572781D01*
X156376666Y-116708495D02*
X157043333Y-118358495D01*
X157043333Y-116708495D02*
X156376666Y-118358495D01*
X155448095Y-119412067D02*
X155352857Y-119333495D01*
X155210000Y-119333495D01*
X155067142Y-119412067D01*
X154971904Y-119569209D01*
X154924285Y-119726352D01*
X154876666Y-120040638D01*
X154876666Y-120276352D01*
X154924285Y-120590638D01*
X154971904Y-120747781D01*
X155067142Y-120904924D01*
X155210000Y-120983495D01*
X155305238Y-120983495D01*
X155448095Y-120904924D01*
X155495714Y-120826352D01*
X155495714Y-120276352D01*
X155305238Y-120276352D01*
X155924285Y-120983495D02*
X155924285Y-119333495D01*
X156495714Y-120983495D01*
X156495714Y-119333495D01*
X156971904Y-120983495D02*
X156971904Y-119333495D01*
X157210000Y-119333495D01*
X157352857Y-119412067D01*
X157448095Y-119569209D01*
X157495714Y-119726352D01*
X157543333Y-120040638D01*
X157543333Y-120276352D01*
X157495714Y-120590638D01*
X157448095Y-120747781D01*
X157352857Y-120904924D01*
X157210000Y-120983495D01*
X156971904Y-120983495D01*
X150080773Y-90458495D02*
X150699821Y-90458495D01*
X150366488Y-91087067D01*
X150509345Y-91087067D01*
X150604583Y-91165638D01*
X150652202Y-91244209D01*
X150699821Y-91401352D01*
X150699821Y-91794209D01*
X150652202Y-91951352D01*
X150604583Y-92029924D01*
X150509345Y-92108495D01*
X150223630Y-92108495D01*
X150128392Y-92029924D01*
X150080773Y-91951352D01*
X150985535Y-90458495D02*
X151318869Y-92108495D01*
X151652202Y-90458495D01*
X151890297Y-90458495D02*
X152509345Y-90458495D01*
X152176011Y-91087067D01*
X152318869Y-91087067D01*
X152414107Y-91165638D01*
X152461726Y-91244209D01*
X152509345Y-91401352D01*
X152509345Y-91794209D01*
X152461726Y-91951352D01*
X152414107Y-92029924D01*
X152318869Y-92108495D01*
X152033154Y-92108495D01*
X151937916Y-92029924D01*
X151890297Y-91951352D01*
X149795059Y-94654924D02*
X149937916Y-94733495D01*
X150176011Y-94733495D01*
X150271249Y-94654924D01*
X150318869Y-94576352D01*
X150366488Y-94419209D01*
X150366488Y-94262067D01*
X150318869Y-94104924D01*
X150271249Y-94026352D01*
X150176011Y-93947781D01*
X149985535Y-93869209D01*
X149890297Y-93790638D01*
X149842678Y-93712067D01*
X149795059Y-93554924D01*
X149795059Y-93397781D01*
X149842678Y-93240638D01*
X149890297Y-93162067D01*
X149985535Y-93083495D01*
X150223630Y-93083495D01*
X150366488Y-93162067D01*
X150795059Y-94733495D02*
X150795059Y-93083495D01*
X151033154Y-93083495D01*
X151176011Y-93162067D01*
X151271249Y-93319209D01*
X151318869Y-93476352D01*
X151366488Y-93790638D01*
X151366488Y-94026352D01*
X151318869Y-94340638D01*
X151271249Y-94497781D01*
X151176011Y-94654924D01*
X151033154Y-94733495D01*
X150795059Y-94733495D01*
X151795059Y-94576352D02*
X151842678Y-94654924D01*
X151795059Y-94733495D01*
X151747440Y-94654924D01*
X151795059Y-94576352D01*
X151795059Y-94733495D01*
X152604583Y-93869209D02*
X152747440Y-93947781D01*
X152795059Y-94026352D01*
X152842678Y-94183495D01*
X152842678Y-94419209D01*
X152795059Y-94576352D01*
X152747440Y-94654924D01*
X152652202Y-94733495D01*
X152271249Y-94733495D01*
X152271249Y-93083495D01*
X152604583Y-93083495D01*
X152699821Y-93162067D01*
X152747440Y-93240638D01*
X152795059Y-93397781D01*
X152795059Y-93554924D01*
X152747440Y-93712067D01*
X152699821Y-93790638D01*
X152604583Y-93869209D01*
X152271249Y-93869209D01*
X150318869Y-96494209D02*
X149985535Y-96494209D01*
X149985535Y-97358495D02*
X149985535Y-95708495D01*
X150461726Y-95708495D01*
X150795059Y-97279924D02*
X150937916Y-97358495D01*
X151176011Y-97358495D01*
X151271249Y-97279924D01*
X151318869Y-97201352D01*
X151366488Y-97044209D01*
X151366488Y-96887067D01*
X151318869Y-96729924D01*
X151271249Y-96651352D01*
X151176011Y-96572781D01*
X150985535Y-96494209D01*
X150890297Y-96415638D01*
X150842678Y-96337067D01*
X150795059Y-96179924D01*
X150795059Y-96022781D01*
X150842678Y-95865638D01*
X150890297Y-95787067D01*
X150985535Y-95708495D01*
X151223630Y-95708495D01*
X151366488Y-95787067D01*
X151795059Y-97201352D02*
X151842678Y-97279924D01*
X151795059Y-97358495D01*
X151747440Y-97279924D01*
X151795059Y-97201352D01*
X151795059Y-97358495D01*
X152223630Y-96887067D02*
X152699821Y-96887067D01*
X152128392Y-97358495D02*
X152461726Y-95708495D01*
X152795059Y-97358495D01*
X149366488Y-99904924D02*
X149509345Y-99983495D01*
X149747440Y-99983495D01*
X149842678Y-99904924D01*
X149890297Y-99826352D01*
X149937916Y-99669209D01*
X149937916Y-99512067D01*
X149890297Y-99354924D01*
X149842678Y-99276352D01*
X149747440Y-99197781D01*
X149556964Y-99119209D01*
X149461726Y-99040638D01*
X149414107Y-98962067D01*
X149366488Y-98804924D01*
X149366488Y-98647781D01*
X149414107Y-98490638D01*
X149461726Y-98412067D01*
X149556964Y-98333495D01*
X149795059Y-98333495D01*
X149937916Y-98412067D01*
X150937916Y-99826352D02*
X150890297Y-99904924D01*
X150747440Y-99983495D01*
X150652202Y-99983495D01*
X150509345Y-99904924D01*
X150414107Y-99747781D01*
X150366488Y-99590638D01*
X150318869Y-99276352D01*
X150318869Y-99040638D01*
X150366488Y-98726352D01*
X150414107Y-98569209D01*
X150509345Y-98412067D01*
X150652202Y-98333495D01*
X150747440Y-98333495D01*
X150890297Y-98412067D01*
X150937916Y-98490638D01*
X151366488Y-99983495D02*
X151366488Y-98333495D01*
X151937916Y-99983495D02*
X151509345Y-99040638D01*
X151937916Y-98333495D02*
X151366488Y-99276352D01*
X152366488Y-99826352D02*
X152414107Y-99904924D01*
X152366488Y-99983495D01*
X152318869Y-99904924D01*
X152366488Y-99826352D01*
X152366488Y-99983495D01*
X152795059Y-99512067D02*
X153271249Y-99512067D01*
X152699821Y-99983495D02*
X153033154Y-98333495D01*
X153366488Y-99983495D01*
X149866488Y-102529924D02*
X150009345Y-102608495D01*
X150247440Y-102608495D01*
X150342678Y-102529924D01*
X150390297Y-102451352D01*
X150437916Y-102294209D01*
X150437916Y-102137067D01*
X150390297Y-101979924D01*
X150342678Y-101901352D01*
X150247440Y-101822781D01*
X150056964Y-101744209D01*
X149961726Y-101665638D01*
X149914107Y-101587067D01*
X149866488Y-101429924D01*
X149866488Y-101272781D01*
X149914107Y-101115638D01*
X149961726Y-101037067D01*
X150056964Y-100958495D01*
X150295059Y-100958495D01*
X150437916Y-101037067D01*
X150866488Y-102608495D02*
X150866488Y-100958495D01*
X151104583Y-100958495D01*
X151247440Y-101037067D01*
X151342678Y-101194209D01*
X151390297Y-101351352D01*
X151437916Y-101665638D01*
X151437916Y-101901352D01*
X151390297Y-102215638D01*
X151342678Y-102372781D01*
X151247440Y-102529924D01*
X151104583Y-102608495D01*
X150866488Y-102608495D01*
X151866488Y-102451352D02*
X151914107Y-102529924D01*
X151866488Y-102608495D01*
X151818869Y-102529924D01*
X151866488Y-102451352D01*
X151866488Y-102608495D01*
X152295059Y-102137067D02*
X152771249Y-102137067D01*
X152199821Y-102608495D02*
X152533154Y-100958495D01*
X152866488Y-102608495D01*
X149295059Y-105154924D02*
X149437916Y-105233495D01*
X149676011Y-105233495D01*
X149771249Y-105154924D01*
X149818869Y-105076352D01*
X149866488Y-104919209D01*
X149866488Y-104762067D01*
X149818869Y-104604924D01*
X149771249Y-104526352D01*
X149676011Y-104447781D01*
X149485535Y-104369209D01*
X149390297Y-104290638D01*
X149342678Y-104212067D01*
X149295059Y-104054924D01*
X149295059Y-103897781D01*
X149342678Y-103740638D01*
X149390297Y-103662067D01*
X149485535Y-103583495D01*
X149723630Y-103583495D01*
X149866488Y-103662067D01*
X150866488Y-105076352D02*
X150818869Y-105154924D01*
X150676011Y-105233495D01*
X150580773Y-105233495D01*
X150437916Y-105154924D01*
X150342678Y-104997781D01*
X150295059Y-104840638D01*
X150247440Y-104526352D01*
X150247440Y-104290638D01*
X150295059Y-103976352D01*
X150342678Y-103819209D01*
X150437916Y-103662067D01*
X150580773Y-103583495D01*
X150676011Y-103583495D01*
X150818869Y-103662067D01*
X150866488Y-103740638D01*
X151295059Y-105233495D02*
X151295059Y-103583495D01*
X151866488Y-105233495D02*
X151437916Y-104290638D01*
X151866488Y-103583495D02*
X151295059Y-104526352D01*
X152295059Y-105076352D02*
X152342678Y-105154924D01*
X152295059Y-105233495D01*
X152247440Y-105154924D01*
X152295059Y-105076352D01*
X152295059Y-105233495D01*
X153104583Y-104369209D02*
X153247440Y-104447781D01*
X153295059Y-104526352D01*
X153342678Y-104683495D01*
X153342678Y-104919209D01*
X153295059Y-105076352D01*
X153247440Y-105154924D01*
X153152202Y-105233495D01*
X152771249Y-105233495D01*
X152771249Y-103583495D01*
X153104583Y-103583495D01*
X153199821Y-103662067D01*
X153247440Y-103740638D01*
X153295059Y-103897781D01*
X153295059Y-104054924D01*
X153247440Y-104212067D01*
X153199821Y-104290638D01*
X153104583Y-104369209D01*
X152771249Y-104369209D01*
X150247440Y-106994209D02*
X149914107Y-106994209D01*
X149914107Y-107858495D02*
X149914107Y-106208495D01*
X150390297Y-106208495D01*
X150723630Y-107779924D02*
X150866488Y-107858495D01*
X151104583Y-107858495D01*
X151199821Y-107779924D01*
X151247440Y-107701352D01*
X151295059Y-107544209D01*
X151295059Y-107387067D01*
X151247440Y-107229924D01*
X151199821Y-107151352D01*
X151104583Y-107072781D01*
X150914107Y-106994209D01*
X150818869Y-106915638D01*
X150771249Y-106837067D01*
X150723630Y-106679924D01*
X150723630Y-106522781D01*
X150771249Y-106365638D01*
X150818869Y-106287067D01*
X150914107Y-106208495D01*
X151152202Y-106208495D01*
X151295059Y-106287067D01*
X151723630Y-107701352D02*
X151771249Y-107779924D01*
X151723630Y-107858495D01*
X151676011Y-107779924D01*
X151723630Y-107701352D01*
X151723630Y-107858495D01*
X152533154Y-106994209D02*
X152676011Y-107072781D01*
X152723630Y-107151352D01*
X152771249Y-107308495D01*
X152771249Y-107544209D01*
X152723630Y-107701352D01*
X152676011Y-107779924D01*
X152580773Y-107858495D01*
X152199821Y-107858495D01*
X152199821Y-106208495D01*
X152533154Y-106208495D01*
X152628392Y-106287067D01*
X152676011Y-106365638D01*
X152723630Y-106522781D01*
X152723630Y-106679924D01*
X152676011Y-106837067D01*
X152628392Y-106915638D01*
X152533154Y-106994209D01*
X152199821Y-106994209D01*
X150033154Y-110404924D02*
X150176011Y-110483495D01*
X150414107Y-110483495D01*
X150509345Y-110404924D01*
X150556964Y-110326352D01*
X150604583Y-110169209D01*
X150604583Y-110012067D01*
X150556964Y-109854924D01*
X150509345Y-109776352D01*
X150414107Y-109697781D01*
X150223630Y-109619209D01*
X150128392Y-109540638D01*
X150080773Y-109462067D01*
X150033154Y-109304924D01*
X150033154Y-109147781D01*
X150080773Y-108990638D01*
X150128392Y-108912067D01*
X150223630Y-108833495D01*
X150461726Y-108833495D01*
X150604583Y-108912067D01*
X151604583Y-110326352D02*
X151556964Y-110404924D01*
X151414107Y-110483495D01*
X151318869Y-110483495D01*
X151176011Y-110404924D01*
X151080773Y-110247781D01*
X151033154Y-110090638D01*
X150985535Y-109776352D01*
X150985535Y-109540638D01*
X151033154Y-109226352D01*
X151080773Y-109069209D01*
X151176011Y-108912067D01*
X151318869Y-108833495D01*
X151414107Y-108833495D01*
X151556964Y-108912067D01*
X151604583Y-108990638D01*
X152033154Y-110483495D02*
X152033154Y-108833495D01*
X152604583Y-110483495D02*
X152176011Y-109540638D01*
X152604583Y-108833495D02*
X152033154Y-109776352D01*
X150080773Y-113108495D02*
X150080773Y-111458495D01*
X150652202Y-113108495D01*
X150652202Y-111458495D01*
X151080773Y-113029924D02*
X151223630Y-113108495D01*
X151461726Y-113108495D01*
X151556964Y-113029924D01*
X151604583Y-112951352D01*
X151652202Y-112794209D01*
X151652202Y-112637067D01*
X151604583Y-112479924D01*
X151556964Y-112401352D01*
X151461726Y-112322781D01*
X151271249Y-112244209D01*
X151176011Y-112165638D01*
X151128392Y-112087067D01*
X151080773Y-111929924D01*
X151080773Y-111772781D01*
X151128392Y-111615638D01*
X151176011Y-111537067D01*
X151271249Y-111458495D01*
X151509345Y-111458495D01*
X151652202Y-111537067D01*
X152033154Y-113029924D02*
X152176011Y-113108495D01*
X152414107Y-113108495D01*
X152509345Y-113029924D01*
X152556964Y-112951352D01*
X152604583Y-112794209D01*
X152604583Y-112637067D01*
X152556964Y-112479924D01*
X152509345Y-112401352D01*
X152414107Y-112322781D01*
X152223630Y-112244209D01*
X152128392Y-112165638D01*
X152080773Y-112087067D01*
X152033154Y-111929924D01*
X152033154Y-111772781D01*
X152080773Y-111615638D01*
X152128392Y-111537067D01*
X152223630Y-111458495D01*
X152461726Y-111458495D01*
X152604583Y-111537067D01*
X149747440Y-115733495D02*
X149747440Y-114083495D01*
X150080773Y-115262067D01*
X150414107Y-114083495D01*
X150414107Y-115733495D01*
X150890297Y-115733495D02*
X150890297Y-114083495D01*
X151318869Y-115654924D02*
X151461726Y-115733495D01*
X151699821Y-115733495D01*
X151795059Y-115654924D01*
X151842678Y-115576352D01*
X151890297Y-115419209D01*
X151890297Y-115262067D01*
X151842678Y-115104924D01*
X151795059Y-115026352D01*
X151699821Y-114947781D01*
X151509345Y-114869209D01*
X151414107Y-114790638D01*
X151366488Y-114712067D01*
X151318869Y-114554924D01*
X151318869Y-114397781D01*
X151366488Y-114240638D01*
X151414107Y-114162067D01*
X151509345Y-114083495D01*
X151747440Y-114083495D01*
X151890297Y-114162067D01*
X152509345Y-114083495D02*
X152699821Y-114083495D01*
X152795059Y-114162067D01*
X152890297Y-114319209D01*
X152937916Y-114633495D01*
X152937916Y-115183495D01*
X152890297Y-115497781D01*
X152795059Y-115654924D01*
X152699821Y-115733495D01*
X152509345Y-115733495D01*
X152414107Y-115654924D01*
X152318869Y-115497781D01*
X152271249Y-115183495D01*
X152271249Y-114633495D01*
X152318869Y-114319209D01*
X152414107Y-114162067D01*
X152509345Y-114083495D01*
X149747440Y-118358495D02*
X149747440Y-116708495D01*
X150080773Y-117887067D01*
X150414107Y-116708495D01*
X150414107Y-118358495D01*
X151080773Y-116708495D02*
X151271249Y-116708495D01*
X151366488Y-116787067D01*
X151461726Y-116944209D01*
X151509345Y-117258495D01*
X151509345Y-117808495D01*
X151461726Y-118122781D01*
X151366488Y-118279924D01*
X151271249Y-118358495D01*
X151080773Y-118358495D01*
X150985535Y-118279924D01*
X150890297Y-118122781D01*
X150842678Y-117808495D01*
X150842678Y-117258495D01*
X150890297Y-116944209D01*
X150985535Y-116787067D01*
X151080773Y-116708495D01*
X151890297Y-118279924D02*
X152033154Y-118358495D01*
X152271249Y-118358495D01*
X152366488Y-118279924D01*
X152414107Y-118201352D01*
X152461726Y-118044209D01*
X152461726Y-117887067D01*
X152414107Y-117729924D01*
X152366488Y-117651352D01*
X152271249Y-117572781D01*
X152080773Y-117494209D01*
X151985535Y-117415638D01*
X151937916Y-117337067D01*
X151890297Y-117179924D01*
X151890297Y-117022781D01*
X151937916Y-116865638D01*
X151985535Y-116787067D01*
X152080773Y-116708495D01*
X152318869Y-116708495D01*
X152461726Y-116787067D01*
X152890297Y-118358495D02*
X152890297Y-116708495D01*
X150556964Y-119412067D02*
X150461726Y-119333495D01*
X150318869Y-119333495D01*
X150176011Y-119412067D01*
X150080773Y-119569209D01*
X150033154Y-119726352D01*
X149985535Y-120040638D01*
X149985535Y-120276352D01*
X150033154Y-120590638D01*
X150080773Y-120747781D01*
X150176011Y-120904924D01*
X150318869Y-120983495D01*
X150414107Y-120983495D01*
X150556964Y-120904924D01*
X150604583Y-120826352D01*
X150604583Y-120276352D01*
X150414107Y-120276352D01*
X151033154Y-120983495D02*
X151033154Y-119333495D01*
X151604583Y-120983495D01*
X151604583Y-119333495D01*
X152080773Y-120983495D02*
X152080773Y-119333495D01*
X152318869Y-119333495D01*
X152461726Y-119412067D01*
X152556964Y-119569209D01*
X152604583Y-119726352D01*
X152652202Y-120040638D01*
X152652202Y-120276352D01*
X152604583Y-120590638D01*
X152556964Y-120747781D01*
X152461726Y-120904924D01*
X152318869Y-120983495D01*
X152080773Y-120983495D01*
D12*
%TO.C,U1*%
X128020000Y-173070000D02*
X146210000Y-173070000D01*
X146610000Y-172670000D02*
X146610000Y-39870000D01*
X121400000Y-39470000D02*
X76810000Y-39470000D01*
X76410000Y-39870000D02*
X76410000Y-172670000D01*
X128020000Y-173070000D02*
X128020000Y-175520000D01*
X128020000Y-175520000D02*
X113800000Y-175520000D01*
X113800000Y-175520000D02*
X113800000Y-173070000D01*
X88400000Y-173070000D02*
X76810000Y-173070000D01*
X113800000Y-173070000D02*
X96620000Y-173060000D01*
X88400000Y-173070000D02*
X88400000Y-174580000D01*
X88400000Y-174580000D02*
X96620000Y-174580000D01*
X96620000Y-174580000D02*
X96620000Y-173060000D01*
X121400000Y-39470000D02*
X121400000Y-37960000D01*
X121400000Y-37960000D02*
X129620000Y-37960000D01*
X129620000Y-37960000D02*
X129620000Y-39470000D01*
X129620000Y-39470000D02*
X146210000Y-39470000D01*
X146210000Y-173070000D02*
G75*
G03*
X146610000Y-172670000I0J400000D01*
G01*
X76410000Y-172670000D02*
G75*
G03*
X76810000Y-173070000I400000J0D01*
G01*
X76810000Y-39470000D02*
G75*
G03*
X76410000Y-39870000I0J-400000D01*
G01*
X146610000Y-39870000D02*
G75*
G03*
X146210000Y-39470000I-400000J0D01*
G01*
%TO.C,R3*%
X165532000Y-155980000D02*
X165532000Y-156670000D01*
X165532000Y-166600000D02*
X165532000Y-165910000D01*
X163812000Y-156670000D02*
X163812000Y-165910000D01*
X167252000Y-156670000D02*
X163812000Y-156670000D01*
X167252000Y-165910000D02*
X167252000Y-156670000D01*
X163812000Y-165910000D02*
X167252000Y-165910000D01*
%TO.C,R2*%
X159591000Y-155980000D02*
X159591000Y-156670000D01*
X159591000Y-166600000D02*
X159591000Y-165910000D01*
X157871000Y-156670000D02*
X157871000Y-165910000D01*
X161311000Y-156670000D02*
X157871000Y-156670000D01*
X161311000Y-165910000D02*
X161311000Y-156670000D01*
X157871000Y-165910000D02*
X161311000Y-165910000D01*
%TO.C,R1*%
X153670000Y-155980000D02*
X153670000Y-156670000D01*
X153670000Y-166600000D02*
X153670000Y-165910000D01*
X151950000Y-156670000D02*
X151950000Y-165910000D01*
X155390000Y-156670000D02*
X151950000Y-156670000D01*
X155390000Y-165910000D02*
X155390000Y-156670000D01*
X151950000Y-165910000D02*
X155390000Y-165910000D01*
%TO.C,U2*%
X157750000Y-129480000D02*
X156100000Y-129480000D01*
X156100000Y-129480000D02*
X156100000Y-139760000D01*
X156100000Y-139760000D02*
X161400000Y-139760000D01*
X161400000Y-139760000D02*
X161400000Y-129480000D01*
X161400000Y-129480000D02*
X159750000Y-129480000D01*
X153610000Y-129420000D02*
X153610000Y-139820000D01*
X153610000Y-139820000D02*
X163890000Y-139820000D01*
X163890000Y-139820000D02*
X163890000Y-129420000D01*
X163890000Y-129420000D02*
X153610000Y-129420000D01*
X159750000Y-129480000D02*
G75*
G02*
X157750000Y-129480000I-1000000J0D01*
G01*
%TO.C,J2*%
X162500000Y-120710000D02*
X167700000Y-120710000D01*
X162500000Y-92710000D02*
X162500000Y-120710000D01*
X167700000Y-90110000D02*
X167700000Y-120710000D01*
X162500000Y-92710000D02*
X165100000Y-92710000D01*
X165100000Y-92710000D02*
X165100000Y-90110000D01*
X165100000Y-90110000D02*
X167700000Y-90110000D01*
X162500000Y-91440000D02*
X162500000Y-90110000D01*
X162500000Y-90110000D02*
X163830000Y-90110000D01*
%TO.C,D3*%
X163395000Y-147699000D02*
X163395000Y-147855000D01*
X163395000Y-150015000D02*
X163395000Y-150171000D01*
X165996130Y-150014837D02*
G75*
G02*
X163914039Y-150015000I-1041130J1079837D01*
G01*
X165996130Y-147855163D02*
G75*
G03*
X163914039Y-147855000I-1041130J-1079837D01*
G01*
X166627335Y-150013608D02*
G75*
G02*
X163395000Y-150170516I-1672335J1078608D01*
G01*
X166627335Y-147856392D02*
G75*
G03*
X163395000Y-147699484I-1672335J-1078608D01*
G01*
%TO.C,D2*%
X157495000Y-147699000D02*
X157495000Y-147855000D01*
X157495000Y-150015000D02*
X157495000Y-150171000D01*
X160096130Y-150014837D02*
G75*
G02*
X158014039Y-150015000I-1041130J1079837D01*
G01*
X160096130Y-147855163D02*
G75*
G03*
X158014039Y-147855000I-1041130J-1079837D01*
G01*
X160727335Y-150013608D02*
G75*
G02*
X157495000Y-150170516I-1672335J1078608D01*
G01*
X160727335Y-147856392D02*
G75*
G03*
X157495000Y-147699484I-1672335J-1078608D01*
G01*
%TO.C,D1*%
X151595000Y-147699000D02*
X151595000Y-147855000D01*
X151595000Y-150015000D02*
X151595000Y-150171000D01*
X154196130Y-150014837D02*
G75*
G02*
X152114039Y-150015000I-1041130J1079837D01*
G01*
X154196130Y-147855163D02*
G75*
G03*
X152114039Y-147855000I-1041130J-1079837D01*
G01*
X154827335Y-150013608D02*
G75*
G02*
X151595000Y-150170516I-1672335J1078608D01*
G01*
X154827335Y-147856392D02*
G75*
G03*
X151595000Y-147699484I-1672335J-1078608D01*
G01*
%TO.C,J1*%
X162500000Y-86420000D02*
X167700000Y-86420000D01*
X162500000Y-45720000D02*
X162500000Y-86420000D01*
X167700000Y-43120000D02*
X167700000Y-86420000D01*
X162500000Y-45720000D02*
X165100000Y-45720000D01*
X165100000Y-45720000D02*
X165100000Y-43120000D01*
X165100000Y-43120000D02*
X167700000Y-43120000D01*
X162500000Y-44450000D02*
X162500000Y-43120000D01*
X162500000Y-43120000D02*
X163830000Y-43120000D01*
%TO.C,U1*%
D11*
X110998095Y-40092380D02*
X110998095Y-40901904D01*
X111045714Y-40997142D01*
X111093333Y-41044761D01*
X111188571Y-41092380D01*
X111379047Y-41092380D01*
X111474285Y-41044761D01*
X111521904Y-40997142D01*
X111569523Y-40901904D01*
X111569523Y-40092380D01*
X112569523Y-41092380D02*
X111998095Y-41092380D01*
X112283809Y-41092380D02*
X112283809Y-40092380D01*
X112188571Y-40235238D01*
X112093333Y-40330476D01*
X111998095Y-40378095D01*
%TO.C,R3*%
X163264380Y-162726666D02*
X162788190Y-163060000D01*
X163264380Y-163298095D02*
X162264380Y-163298095D01*
X162264380Y-162917142D01*
X162312000Y-162821904D01*
X162359619Y-162774285D01*
X162454857Y-162726666D01*
X162597714Y-162726666D01*
X162692952Y-162774285D01*
X162740571Y-162821904D01*
X162788190Y-162917142D01*
X162788190Y-163298095D01*
X162264380Y-162393333D02*
X162264380Y-161774285D01*
X162645333Y-162107619D01*
X162645333Y-161964761D01*
X162692952Y-161869523D01*
X162740571Y-161821904D01*
X162835809Y-161774285D01*
X163073904Y-161774285D01*
X163169142Y-161821904D01*
X163216761Y-161869523D01*
X163264380Y-161964761D01*
X163264380Y-162250476D01*
X163216761Y-162345714D01*
X163169142Y-162393333D01*
%TO.C,R2*%
X157323380Y-162726666D02*
X156847190Y-163060000D01*
X157323380Y-163298095D02*
X156323380Y-163298095D01*
X156323380Y-162917142D01*
X156371000Y-162821904D01*
X156418619Y-162774285D01*
X156513857Y-162726666D01*
X156656714Y-162726666D01*
X156751952Y-162774285D01*
X156799571Y-162821904D01*
X156847190Y-162917142D01*
X156847190Y-163298095D01*
X156418619Y-162345714D02*
X156371000Y-162298095D01*
X156323380Y-162202857D01*
X156323380Y-161964761D01*
X156371000Y-161869523D01*
X156418619Y-161821904D01*
X156513857Y-161774285D01*
X156609095Y-161774285D01*
X156751952Y-161821904D01*
X157323380Y-162393333D01*
X157323380Y-161774285D01*
%TO.C,R1*%
X151402380Y-162726666D02*
X150926190Y-163060000D01*
X151402380Y-163298095D02*
X150402380Y-163298095D01*
X150402380Y-162917142D01*
X150450000Y-162821904D01*
X150497619Y-162774285D01*
X150592857Y-162726666D01*
X150735714Y-162726666D01*
X150830952Y-162774285D01*
X150878571Y-162821904D01*
X150926190Y-162917142D01*
X150926190Y-163298095D01*
X151402380Y-161774285D02*
X151402380Y-162345714D01*
X151402380Y-162060000D02*
X150402380Y-162060000D01*
X150545238Y-162155238D01*
X150640476Y-162250476D01*
X150688095Y-162345714D01*
%TO.C,U2*%
X157988095Y-127932380D02*
X157988095Y-128741904D01*
X158035714Y-128837142D01*
X158083333Y-128884761D01*
X158178571Y-128932380D01*
X158369047Y-128932380D01*
X158464285Y-128884761D01*
X158511904Y-128837142D01*
X158559523Y-128741904D01*
X158559523Y-127932380D01*
X158988095Y-128027619D02*
X159035714Y-127980000D01*
X159130952Y-127932380D01*
X159369047Y-127932380D01*
X159464285Y-127980000D01*
X159511904Y-128027619D01*
X159559523Y-128122857D01*
X159559523Y-128218095D01*
X159511904Y-128360952D01*
X158940476Y-128932380D01*
X159559523Y-128932380D01*
%TO.C,J2*%
X164766666Y-88562380D02*
X164766666Y-89276666D01*
X164719047Y-89419523D01*
X164623809Y-89514761D01*
X164480952Y-89562380D01*
X164385714Y-89562380D01*
X165195238Y-88657619D02*
X165242857Y-88610000D01*
X165338095Y-88562380D01*
X165576190Y-88562380D01*
X165671428Y-88610000D01*
X165719047Y-88657619D01*
X165766666Y-88752857D01*
X165766666Y-88848095D01*
X165719047Y-88990952D01*
X165147619Y-89562380D01*
X165766666Y-89562380D01*
%TO.C,D3*%
X164216904Y-146427380D02*
X164216904Y-145427380D01*
X164455000Y-145427380D01*
X164597857Y-145475000D01*
X164693095Y-145570238D01*
X164740714Y-145665476D01*
X164788333Y-145855952D01*
X164788333Y-145998809D01*
X164740714Y-146189285D01*
X164693095Y-146284523D01*
X164597857Y-146379761D01*
X164455000Y-146427380D01*
X164216904Y-146427380D01*
X165121666Y-145427380D02*
X165740714Y-145427380D01*
X165407380Y-145808333D01*
X165550238Y-145808333D01*
X165645476Y-145855952D01*
X165693095Y-145903571D01*
X165740714Y-145998809D01*
X165740714Y-146236904D01*
X165693095Y-146332142D01*
X165645476Y-146379761D01*
X165550238Y-146427380D01*
X165264523Y-146427380D01*
X165169285Y-146379761D01*
X165121666Y-146332142D01*
%TO.C,D2*%
X158316904Y-146427380D02*
X158316904Y-145427380D01*
X158555000Y-145427380D01*
X158697857Y-145475000D01*
X158793095Y-145570238D01*
X158840714Y-145665476D01*
X158888333Y-145855952D01*
X158888333Y-145998809D01*
X158840714Y-146189285D01*
X158793095Y-146284523D01*
X158697857Y-146379761D01*
X158555000Y-146427380D01*
X158316904Y-146427380D01*
X159269285Y-145522619D02*
X159316904Y-145475000D01*
X159412142Y-145427380D01*
X159650238Y-145427380D01*
X159745476Y-145475000D01*
X159793095Y-145522619D01*
X159840714Y-145617857D01*
X159840714Y-145713095D01*
X159793095Y-145855952D01*
X159221666Y-146427380D01*
X159840714Y-146427380D01*
%TO.C,D1*%
X152416904Y-146427380D02*
X152416904Y-145427380D01*
X152655000Y-145427380D01*
X152797857Y-145475000D01*
X152893095Y-145570238D01*
X152940714Y-145665476D01*
X152988333Y-145855952D01*
X152988333Y-145998809D01*
X152940714Y-146189285D01*
X152893095Y-146284523D01*
X152797857Y-146379761D01*
X152655000Y-146427380D01*
X152416904Y-146427380D01*
X153940714Y-146427380D02*
X153369285Y-146427380D01*
X153655000Y-146427380D02*
X153655000Y-145427380D01*
X153559761Y-145570238D01*
X153464523Y-145665476D01*
X153369285Y-145713095D01*
%TO.C,J1*%
X164766666Y-41572380D02*
X164766666Y-42286666D01*
X164719047Y-42429523D01*
X164623809Y-42524761D01*
X164480952Y-42572380D01*
X164385714Y-42572380D01*
X165766666Y-42572380D02*
X165195238Y-42572380D01*
X165480952Y-42572380D02*
X165480952Y-41572380D01*
X165385714Y-41715238D01*
X165290476Y-41810476D01*
X165195238Y-41858095D01*
%TD*%
M02*
