%TF.GenerationSoftware,KiCad,Pcbnew,(5.1.10)-1*%
%TF.CreationDate,2022-06-15T22:29:57+09:00*%
%TF.ProjectId,2022_barami,32303232-5f62-4617-9261-6d692e6b6963,rev?*%
%TF.SameCoordinates,Original*%
%TF.FileFunction,Copper,L4,Bot*%
%TF.FilePolarity,Positive*%
%FSLAX46Y46*%
G04 Gerber Fmt 4.6, Leading zero omitted, Abs format (unit mm)*
G04 Created by KiCad (PCBNEW (5.1.10)-1) date 2022-06-15 22:29:57*
%MOMM*%
%LPD*%
G01*
G04 APERTURE LIST*
%TA.AperFunction,ComponentPad*%
%ADD10C,1.700000*%
%TD*%
%TA.AperFunction,ComponentPad*%
%ADD11O,1.600000X1.600000*%
%TD*%
%TA.AperFunction,ComponentPad*%
%ADD12C,1.600000*%
%TD*%
%TA.AperFunction,ComponentPad*%
%ADD13R,1.600000X1.600000*%
%TD*%
%TA.AperFunction,ComponentPad*%
%ADD14O,1.700000X1.700000*%
%TD*%
%TA.AperFunction,ComponentPad*%
%ADD15R,1.700000X1.700000*%
%TD*%
%TA.AperFunction,ComponentPad*%
%ADD16C,1.800000*%
%TD*%
%TA.AperFunction,ComponentPad*%
%ADD17R,1.800000X1.800000*%
%TD*%
%TA.AperFunction,ViaPad*%
%ADD18C,0.800000*%
%TD*%
%TA.AperFunction,Conductor*%
%ADD19C,0.250000*%
%TD*%
G04 APERTURE END LIST*
D10*
%TO.P,U1,148*%
%TO.N,N/C*%
X143260000Y-45910000D03*
%TO.P,U1,147*%
X143260000Y-43370000D03*
%TO.P,U1,146*%
X79760000Y-45910000D03*
%TO.P,U1,145*%
X79760000Y-43370000D03*
%TO.P,U1,144*%
%TO.N,GND*%
X143260000Y-160210000D03*
%TO.P,U1,143*%
X140720000Y-160210000D03*
%TO.P,U1,142*%
%TO.N,QUADSPI_BK1_NCS*%
X143260000Y-157670000D03*
%TO.P,U1,141*%
%TO.N,N/C*%
X140720000Y-157670000D03*
%TO.P,U1,140*%
X143260000Y-155130000D03*
%TO.P,U1,139*%
X140720000Y-155130000D03*
%TO.P,U1,138*%
%TO.N,LCD_G7*%
X143260000Y-152590000D03*
%TO.P,U1,137*%
%TO.N,LCD_B3*%
X140720000Y-152590000D03*
%TO.P,U1,136*%
%TO.N,N/C*%
X143260000Y-150050000D03*
%TO.P,U1,135*%
%TO.N,GND*%
X140720000Y-150050000D03*
%TO.P,U1,134*%
%TO.N,N/C*%
X143260000Y-147510000D03*
%TO.P,U1,133*%
X140720000Y-147510000D03*
%TO.P,U1,132*%
X143260000Y-144970000D03*
%TO.P,U1,131*%
X140720000Y-144970000D03*
%TO.P,U1,130*%
X143260000Y-142430000D03*
%TO.P,U1,129*%
X140720000Y-142430000D03*
%TO.P,U1,128*%
%TO.N,LCD_G3*%
X143260000Y-139890000D03*
%TO.P,U1,127*%
%TO.N,TIM1_CH3*%
X140720000Y-139890000D03*
%TO.P,U1,126*%
%TO.N,GND*%
X143260000Y-137350000D03*
%TO.P,U1,125*%
%TO.N,LCD_R7*%
X140720000Y-137350000D03*
%TO.P,U1,124*%
%TO.N,TIM1_CH1*%
X143260000Y-134810000D03*
%TO.P,U1,123*%
%TO.N,LCD_CLK*%
X140720000Y-134810000D03*
%TO.P,U1,122*%
%TO.N,N/C*%
X143260000Y-132270000D03*
%TO.P,U1,121*%
%TO.N,LCD_B4*%
X140720000Y-132270000D03*
%TO.P,U1,120*%
%TO.N,N/C*%
X143260000Y-129730000D03*
%TO.P,U1,119*%
X140720000Y-129730000D03*
%TO.P,U1,118*%
X143260000Y-127190000D03*
%TO.P,U1,117*%
%TO.N,QUADSPI_BK1_IO0*%
X140720000Y-127190000D03*
%TO.P,U1,116*%
%TO.N,N/C*%
X143260000Y-124650000D03*
%TO.P,U1,115*%
%TO.N,QUADSPI_BK1_IO1*%
X140720000Y-124650000D03*
%TO.P,U1,114*%
%TO.N,N/C*%
X143260000Y-122110000D03*
%TO.P,U1,113*%
X140720000Y-122110000D03*
%TO.P,U1,112*%
X143260000Y-119570000D03*
%TO.P,U1,111*%
%TO.N,GND*%
X140720000Y-119570000D03*
%TO.P,U1,110*%
%TO.N,N/C*%
X143260000Y-117030000D03*
%TO.P,U1,109*%
%TO.N,LCD_B5*%
X140720000Y-117030000D03*
%TO.P,U1,108*%
%TO.N,N/C*%
X143260000Y-114490000D03*
%TO.P,U1,107*%
X140720000Y-114490000D03*
%TO.P,U1,106*%
X143260000Y-111950000D03*
%TO.P,U1,105*%
X140720000Y-111950000D03*
%TO.P,U1,104*%
%TO.N,GND*%
X143260000Y-109410000D03*
%TO.P,U1,103*%
%TO.N,SPI1_SCK*%
X140720000Y-109410000D03*
%TO.P,U1,102*%
%TO.N,N/C*%
X143260000Y-106870000D03*
%TO.P,U1,101*%
X140720000Y-106870000D03*
%TO.P,U1,100*%
X143260000Y-104330000D03*
%TO.P,U1,99*%
X140720000Y-104330000D03*
%TO.P,U1,98*%
%TO.N,USART1_RX*%
X143260000Y-101790000D03*
%TO.P,U1,97*%
%TO.N,LCD_G4*%
X140720000Y-101790000D03*
%TO.P,U1,96*%
%TO.N,LCD_R6*%
X143260000Y-99250000D03*
%TO.P,U1,95*%
%TO.N,LCD_B3*%
X140720000Y-99250000D03*
%TO.P,U1,94*%
%TO.N,QUADSPI_CLK*%
X143260000Y-96710000D03*
%TO.P,U1,93*%
%TO.N,N/C*%
X140720000Y-96710000D03*
%TO.P,U1,92*%
%TO.N,GND*%
X143260000Y-94170000D03*
%TO.P,U1,91*%
%TO.N,LCD_G6*%
X140720000Y-94170000D03*
%TO.P,U1,90*%
%TO.N,LCD_G5*%
X143260000Y-91630000D03*
%TO.P,U1,89*%
%TO.N,USART1_TX*%
X140720000Y-91630000D03*
%TO.P,U1,88*%
%TO.N,N/C*%
X143260000Y-89090000D03*
%TO.P,U1,87*%
X140720000Y-89090000D03*
%TO.P,U1,86*%
X143260000Y-86550000D03*
%TO.P,U1,85*%
%TO.N,LCD_G2*%
X140720000Y-86550000D03*
%TO.P,U1,84*%
%TO.N,N/C*%
X143260000Y-84010000D03*
%TO.P,U1,83*%
%TO.N,LCD_R4*%
X140720000Y-84010000D03*
%TO.P,U1,82*%
%TO.N,N/C*%
X143260000Y-81470000D03*
%TO.P,U1,81*%
%TO.N,GND*%
X140720000Y-81470000D03*
%TO.P,U1,80*%
%TO.N,N/C*%
X143260000Y-78930000D03*
%TO.P,U1,79*%
X140720000Y-78930000D03*
%TO.P,U1,78*%
X143260000Y-76390000D03*
%TO.P,U1,77*%
%TO.N,LCD_B7*%
X140720000Y-76390000D03*
%TO.P,U1,76*%
%TO.N,LCD_HSYNC*%
X143260000Y-73850000D03*
%TO.P,U1,75*%
%TO.N,LCD_B6*%
X140720000Y-73850000D03*
%TO.P,U1,74*%
%TO.N,N/C*%
X143260000Y-71310000D03*
%TO.P,U1,73*%
X140720000Y-71310000D03*
%TO.P,U1,72*%
%TO.N,GND*%
X82300000Y-160210000D03*
%TO.P,U1,71*%
X79760000Y-160210000D03*
%TO.P,U1,70*%
%TO.N,N/C*%
X82300000Y-157670000D03*
%TO.P,U1,69*%
X79760000Y-157670000D03*
%TO.P,U1,68*%
X82300000Y-155130000D03*
%TO.P,U1,67*%
X79760000Y-155130000D03*
%TO.P,U1,66*%
X82300000Y-152590000D03*
%TO.P,U1,65*%
X79760000Y-152590000D03*
%TO.P,U1,64*%
X82300000Y-150050000D03*
%TO.P,U1,63*%
%TO.N,SPI1_MISO*%
X79760000Y-150050000D03*
%TO.P,U1,62*%
%TO.N,SAI1_SD_A*%
X82300000Y-147510000D03*
%TO.P,U1,61*%
%TO.N,N/C*%
X79760000Y-147510000D03*
%TO.P,U1,60*%
%TO.N,GND*%
X82300000Y-144970000D03*
%TO.P,U1,59*%
%TO.N,N/C*%
X79760000Y-144970000D03*
%TO.P,U1,58*%
X82300000Y-142430000D03*
%TO.P,U1,57*%
%TO.N,LED_ERR*%
X79760000Y-142430000D03*
%TO.P,U1,56*%
%TO.N,SAI1_FS_B*%
X82300000Y-139890000D03*
%TO.P,U1,55*%
%TO.N,LED_RUN*%
X79760000Y-139890000D03*
%TO.P,U1,54*%
%TO.N,SAI1_SCK_B*%
X82300000Y-137350000D03*
%TO.P,U1,53*%
%TO.N,I2C2_SDA*%
X79760000Y-137350000D03*
%TO.P,U1,52*%
%TO.N,N/C*%
X82300000Y-134810000D03*
%TO.P,U1,51*%
%TO.N,I2C2_SCL*%
X79760000Y-134810000D03*
%TO.P,U1,50*%
%TO.N,SAI1_SCK_A*%
X82300000Y-132270000D03*
%TO.P,U1,49*%
%TO.N,GND*%
X79760000Y-132270000D03*
%TO.P,U1,48*%
%TO.N,SAI1_FS_A*%
X82300000Y-129730000D03*
%TO.P,U1,47*%
%TO.N,SAI1_SD_B*%
X79760000Y-129730000D03*
%TO.P,U1,46*%
%TO.N,QUADSPI_BK1_IO2*%
X82300000Y-127190000D03*
%TO.P,U1,45*%
%TO.N,SPI1_MOSI*%
X79760000Y-127190000D03*
%TO.P,U1,44*%
%TO.N,N/C*%
X82300000Y-124650000D03*
%TO.P,U1,43*%
X79760000Y-124650000D03*
%TO.P,U1,42*%
X82300000Y-122110000D03*
%TO.P,U1,41*%
%TO.N,GPIO_EXT3*%
X79760000Y-122110000D03*
%TO.P,U1,40*%
%TO.N,GPIO_EXT1*%
X82300000Y-119570000D03*
%TO.P,U1,39*%
%TO.N,GPIO_EXT2*%
X79760000Y-119570000D03*
%TO.P,U1,38*%
%TO.N,LCD_R5*%
X82300000Y-117030000D03*
%TO.P,U1,37*%
%TO.N,N/C*%
X79760000Y-117030000D03*
%TO.P,U1,36*%
X82300000Y-114490000D03*
%TO.P,U1,35*%
X79760000Y-114490000D03*
%TO.P,U1,34*%
%TO.N,LCD_R3*%
X82300000Y-111950000D03*
%TO.P,U1,33*%
%TO.N,N/C*%
X79760000Y-111950000D03*
%TO.P,U1,32*%
%TO.N,LCD_VSYNC*%
X82300000Y-109410000D03*
%TO.P,U1,31*%
%TO.N,N/C*%
X79760000Y-109410000D03*
%TO.P,U1,30*%
X82300000Y-106870000D03*
%TO.P,U1,29*%
X79760000Y-106870000D03*
%TO.P,U1,28*%
X82300000Y-104330000D03*
%TO.P,U1,27*%
X79760000Y-104330000D03*
%TO.P,U1,26*%
X82300000Y-101790000D03*
%TO.P,U1,25*%
X79760000Y-101790000D03*
%TO.P,U1,24*%
X82300000Y-99250000D03*
%TO.P,U1,23*%
X79760000Y-99250000D03*
%TO.P,U1,22*%
%TO.N,GND*%
X82300000Y-96710000D03*
%TO.P,U1,21*%
%TO.N,N/C*%
X79760000Y-96710000D03*
%TO.P,U1,20*%
%TO.N,GND*%
X82300000Y-94170000D03*
%TO.P,U1,19*%
X79760000Y-94170000D03*
%TO.P,U1,18*%
%TO.N,N/C*%
X82300000Y-91630000D03*
%TO.P,U1,17*%
%TO.N,SPI1_NSS*%
X79760000Y-91630000D03*
%TO.P,U1,16*%
%TO.N,+3V3*%
X82300000Y-89090000D03*
%TO.P,U1,15*%
%TO.N,N/C*%
X79760000Y-89090000D03*
%TO.P,U1,14*%
X82300000Y-86550000D03*
%TO.P,U1,13*%
%TO.N,LCD_BLK*%
X79760000Y-86550000D03*
%TO.P,U1,12*%
%TO.N,N/C*%
X82300000Y-84010000D03*
%TO.P,U1,11*%
X79760000Y-84010000D03*
%TO.P,U1,10*%
X82300000Y-81470000D03*
%TO.P,U1,9*%
%TO.N,QUADSPI_BK1_IO3*%
X79760000Y-81470000D03*
%TO.P,U1,8*%
%TO.N,GND*%
X82300000Y-78930000D03*
%TO.P,U1,7*%
%TO.N,N/C*%
X79760000Y-78930000D03*
%TO.P,U1,6*%
X82300000Y-76390000D03*
%TO.P,U1,5*%
X79760000Y-76390000D03*
%TO.P,U1,4*%
%TO.N,LED_ACT*%
X82300000Y-73850000D03*
%TO.P,U1,3*%
%TO.N,N/C*%
X79760000Y-73850000D03*
%TO.P,U1,2*%
X82300000Y-71310000D03*
%TO.P,U1,1*%
X79760000Y-71310000D03*
%TD*%
D11*
%TO.P,R3,2*%
%TO.N,Net-(D3-Pad2)*%
X165532000Y-154940000D03*
D12*
%TO.P,R3,1*%
%TO.N,LED_ACT*%
X165532000Y-167640000D03*
%TD*%
D11*
%TO.P,R2,2*%
%TO.N,Net-(D2-Pad2)*%
X159591000Y-154940000D03*
D12*
%TO.P,R2,1*%
%TO.N,LED_RUN*%
X159591000Y-167640000D03*
%TD*%
D11*
%TO.P,R1,2*%
%TO.N,Net-(D1-Pad2)*%
X153670000Y-154940000D03*
D12*
%TO.P,R1,1*%
%TO.N,LED_ERR*%
X153670000Y-167640000D03*
%TD*%
D11*
%TO.P,U2,8*%
%TO.N,QUADSPI_BK1_IO0*%
X162560000Y-130810000D03*
%TO.P,U2,4*%
%TO.N,QUADSPI_BK1_IO3*%
X154940000Y-138430000D03*
%TO.P,U2,7*%
%TO.N,GND*%
X162560000Y-133350000D03*
%TO.P,U2,3*%
%TO.N,QUADSPI_BK1_IO1*%
X154940000Y-135890000D03*
%TO.P,U2,6*%
%TO.N,QUADSPI_CLK*%
X162560000Y-135890000D03*
%TO.P,U2,2*%
%TO.N,+3V3*%
X154940000Y-133350000D03*
%TO.P,U2,5*%
%TO.N,QUADSPI_BK1_IO2*%
X162560000Y-138430000D03*
D13*
%TO.P,U2,1*%
%TO.N,QUADSPI_BK1_NCS*%
X154940000Y-130810000D03*
%TD*%
D14*
%TO.P,J2,24*%
%TO.N,GND*%
X166370000Y-119380000D03*
%TO.P,J2,23*%
X163830000Y-119380000D03*
%TO.P,J2,22*%
%TO.N,USART1_RX*%
X166370000Y-116840000D03*
%TO.P,J2,21*%
%TO.N,SPI1_MOSI*%
X163830000Y-116840000D03*
%TO.P,J2,20*%
%TO.N,USART1_TX*%
X166370000Y-114300000D03*
%TO.P,J2,19*%
%TO.N,SPI1_MISO*%
X163830000Y-114300000D03*
%TO.P,J2,18*%
%TO.N,TIM1_CH3*%
X166370000Y-111760000D03*
%TO.P,J2,17*%
%TO.N,SPI1_NSS*%
X163830000Y-111760000D03*
%TO.P,J2,16*%
%TO.N,TIM1_CH1*%
X166370000Y-109220000D03*
%TO.P,J2,15*%
%TO.N,SPI1_SCK*%
X163830000Y-109220000D03*
%TO.P,J2,14*%
%TO.N,I2C2_SCL*%
X166370000Y-106680000D03*
%TO.P,J2,13*%
%TO.N,SAI1_FS_B*%
X163830000Y-106680000D03*
%TO.P,J2,12*%
%TO.N,I2C2_SDA*%
X166370000Y-104140000D03*
%TO.P,J2,11*%
%TO.N,SAI1_SCK_B*%
X163830000Y-104140000D03*
%TO.P,J2,10*%
%TO.N,GPIO_EXT3*%
X166370000Y-101600000D03*
%TO.P,J2,9*%
%TO.N,SAI1_SD_A*%
X163830000Y-101600000D03*
%TO.P,J2,8*%
%TO.N,GPIO_EXT2*%
X166370000Y-99060000D03*
%TO.P,J2,7*%
%TO.N,SAI1_SCK_A*%
X163830000Y-99060000D03*
%TO.P,J2,6*%
%TO.N,GPIO_EXT1*%
X166370000Y-96520000D03*
%TO.P,J2,5*%
%TO.N,SAI1_FS_A*%
X163830000Y-96520000D03*
%TO.P,J2,4*%
%TO.N,N/C*%
X166370000Y-93980000D03*
%TO.P,J2,3*%
%TO.N,SAI1_SD_B*%
X163830000Y-93980000D03*
%TO.P,J2,2*%
%TO.N,+3V3*%
X166370000Y-91440000D03*
D15*
%TO.P,J2,1*%
X163830000Y-91440000D03*
%TD*%
D16*
%TO.P,D3,2*%
%TO.N,Net-(D3-Pad2)*%
X166225000Y-148935000D03*
D17*
%TO.P,D3,1*%
%TO.N,GND*%
X163685000Y-148935000D03*
%TD*%
D16*
%TO.P,D2,2*%
%TO.N,Net-(D2-Pad2)*%
X160325000Y-148935000D03*
D17*
%TO.P,D2,1*%
%TO.N,GND*%
X157785000Y-148935000D03*
%TD*%
D16*
%TO.P,D1,2*%
%TO.N,Net-(D1-Pad2)*%
X154425000Y-148935000D03*
D17*
%TO.P,D1,1*%
%TO.N,GND*%
X151885000Y-148935000D03*
%TD*%
D14*
%TO.P,J1,34*%
%TO.N,LCD_CLK*%
X166370000Y-85090000D03*
%TO.P,J1,33*%
%TO.N,LCD_B7*%
X163830000Y-85090000D03*
%TO.P,J1,32*%
%TO.N,LCD_B6*%
X166370000Y-82550000D03*
%TO.P,J1,31*%
%TO.N,GND*%
X163830000Y-82550000D03*
%TO.P,J1,30*%
%TO.N,LCD_B5*%
X166370000Y-80010000D03*
%TO.P,J1,29*%
%TO.N,LCD_B4*%
X163830000Y-80010000D03*
%TO.P,J1,28*%
%TO.N,N/C*%
X166370000Y-77470000D03*
%TO.P,J1,27*%
%TO.N,GND*%
X163830000Y-77470000D03*
%TO.P,J1,26*%
X166370000Y-74930000D03*
%TO.P,J1,25*%
%TO.N,+3V3*%
X163830000Y-74930000D03*
%TO.P,J1,24*%
X166370000Y-72390000D03*
%TO.P,J1,23*%
%TO.N,LCD_B3*%
X163830000Y-72390000D03*
%TO.P,J1,22*%
%TO.N,GND*%
X166370000Y-69850000D03*
%TO.P,J1,21*%
X163830000Y-69850000D03*
%TO.P,J1,20*%
%TO.N,LCD_BLK*%
X166370000Y-67310000D03*
%TO.P,J1,19*%
%TO.N,GND*%
X163830000Y-67310000D03*
%TO.P,J1,18*%
%TO.N,LCD_G6*%
X166370000Y-64770000D03*
%TO.P,J1,17*%
%TO.N,LCD_G7*%
X163830000Y-64770000D03*
%TO.P,J1,16*%
%TO.N,LCD_G4*%
X166370000Y-62230000D03*
%TO.P,J1,15*%
%TO.N,LCD_G5*%
X163830000Y-62230000D03*
%TO.P,J1,14*%
%TO.N,LCD_G2*%
X166370000Y-59690000D03*
%TO.P,J1,13*%
%TO.N,LCD_G3*%
X163830000Y-59690000D03*
%TO.P,J1,12*%
%TO.N,GND*%
X166370000Y-57150000D03*
%TO.P,J1,11*%
X163830000Y-57150000D03*
%TO.P,J1,10*%
%TO.N,LCD_R6*%
X166370000Y-54610000D03*
%TO.P,J1,9*%
%TO.N,LCD_R7*%
X163830000Y-54610000D03*
%TO.P,J1,8*%
%TO.N,LCD_R4*%
X166370000Y-52070000D03*
%TO.P,J1,7*%
%TO.N,LCD_R5*%
X163830000Y-52070000D03*
%TO.P,J1,6*%
%TO.N,GND*%
X166370000Y-49530000D03*
%TO.P,J1,5*%
%TO.N,LCD_R3*%
X163830000Y-49530000D03*
%TO.P,J1,4*%
%TO.N,GND*%
X166370000Y-46990000D03*
%TO.P,J1,3*%
X163830000Y-46990000D03*
%TO.P,J1,2*%
%TO.N,LCD_VSYNC*%
X166370000Y-44450000D03*
D15*
%TO.P,J1,1*%
%TO.N,LCD_HSYNC*%
X163830000Y-44450000D03*
%TD*%
D18*
%TO.N,GPIO_EXT3*%
X158377000Y-100422000D03*
%TO.N,SAI1_SD_A*%
X160882000Y-109608000D03*
%TO.N,QUADSPI_CLK*%
X155609000Y-125903000D03*
%TO.N,QUADSPI_BK1_IO3*%
X132271000Y-130573000D03*
%TD*%
D19*
%TO.N,LCD_B7*%
X163830000Y-85090000D02*
X162655000Y-85090000D01*
X162655000Y-85090000D02*
X155225000Y-77660000D01*
X155225000Y-77660000D02*
X141990000Y-77660000D01*
X141990000Y-77660000D02*
X140720000Y-76390000D01*
%TO.N,LCD_B6*%
X166370000Y-82550000D02*
X165195000Y-82550000D01*
X165195000Y-82550000D02*
X165195000Y-82182600D01*
X165195000Y-82182600D02*
X164387000Y-81374700D01*
X164387000Y-81374700D02*
X162749000Y-81374700D01*
X162749000Y-81374700D02*
X156589000Y-75214600D01*
X156589000Y-75214600D02*
X142085000Y-75214600D01*
X142085000Y-75214600D02*
X140720000Y-73850000D01*
%TO.N,+3V3*%
X163830000Y-91440000D02*
X162655000Y-91440000D01*
X162655000Y-91440000D02*
X161575000Y-90360000D01*
X161575000Y-90360000D02*
X83570000Y-90360000D01*
X83570000Y-90360000D02*
X82300000Y-89090000D01*
%TO.N,LCD_VSYNC*%
X166370000Y-44450000D02*
X165195000Y-44450000D01*
X165195000Y-44450000D02*
X165195000Y-45258100D01*
X165195000Y-45258100D02*
X164828000Y-45625300D01*
X164828000Y-45625300D02*
X153530000Y-45625300D01*
X153530000Y-45625300D02*
X152450000Y-44545400D01*
X152450000Y-44545400D02*
X142696000Y-44545400D01*
X142696000Y-44545400D02*
X142696000Y-44545000D01*
X142696000Y-44545000D02*
X142601000Y-44450000D01*
%TO.N,USART1_RX*%
X166370000Y-116840000D02*
X166370000Y-115665000D01*
X166370000Y-115665000D02*
X166003000Y-115665000D01*
X166003000Y-115665000D02*
X165195000Y-114857000D01*
X165195000Y-114857000D02*
X165195000Y-108920000D01*
X165195000Y-108920000D02*
X164319000Y-108045000D01*
X164319000Y-108045000D02*
X163214000Y-108045000D01*
X163214000Y-108045000D02*
X156959000Y-101790000D01*
X156959000Y-101790000D02*
X143260000Y-101790000D01*
%TO.N,SPI1_MOSI*%
X163830000Y-116840000D02*
X162655000Y-116840000D01*
X162655000Y-116840000D02*
X158655000Y-120840000D01*
X158655000Y-120840000D02*
X92770500Y-120840000D01*
X92770500Y-120840000D02*
X87785100Y-125825000D01*
X87785100Y-125825000D02*
X81124600Y-125825000D01*
X81124600Y-125825000D02*
X79760000Y-127190000D01*
%TO.N,USART1_TX*%
X166370000Y-114300000D02*
X166370000Y-113125000D01*
X166370000Y-113125000D02*
X166737000Y-113125000D01*
X166737000Y-113125000D02*
X167571000Y-112291000D01*
X167571000Y-112291000D02*
X167571000Y-108759000D01*
X167571000Y-108759000D02*
X166668000Y-107855000D01*
X166668000Y-107855000D02*
X165844000Y-107855000D01*
X165844000Y-107855000D02*
X165005000Y-107016000D01*
X165005000Y-107016000D02*
X165005000Y-106154000D01*
X165005000Y-106154000D02*
X164261000Y-105410000D01*
X164261000Y-105410000D02*
X162340000Y-105410000D01*
X162340000Y-105410000D02*
X149925000Y-92994600D01*
X149925000Y-92994600D02*
X142085000Y-92994600D01*
X142085000Y-92994600D02*
X140720000Y-91630000D01*
%TO.N,SPI1_NSS*%
X163830000Y-111760000D02*
X162655000Y-111760000D01*
X162655000Y-111760000D02*
X161575000Y-110680000D01*
X161575000Y-110680000D02*
X107887000Y-110680000D01*
X107887000Y-110680000D02*
X90201200Y-92994600D01*
X90201200Y-92994600D02*
X81124600Y-92994600D01*
X81124600Y-92994600D02*
X79760000Y-91630000D01*
%TO.N,SPI1_SCK*%
X163830000Y-109220000D02*
X162655000Y-109220000D01*
X162655000Y-109220000D02*
X161642000Y-108208000D01*
X161642000Y-108208000D02*
X141922000Y-108208000D01*
X141922000Y-108208000D02*
X140720000Y-109410000D01*
%TO.N,GPIO_EXT3*%
X166370000Y-101600000D02*
X165195000Y-101600000D01*
X165195000Y-101600000D02*
X165195000Y-101233000D01*
X165195000Y-101233000D02*
X164384000Y-100422000D01*
X164384000Y-100422000D02*
X158377000Y-100422000D01*
%TO.N,QUADSPI_BK1_IO0*%
X162560000Y-130810000D02*
X161435000Y-130810000D01*
X161435000Y-130810000D02*
X159085000Y-128460000D01*
X159085000Y-128460000D02*
X141990000Y-128460000D01*
X141990000Y-128460000D02*
X140720000Y-127190000D01*
%TO.N,QUADSPI_BK1_IO1*%
X154940000Y-135890000D02*
X153815000Y-135890000D01*
X153815000Y-135890000D02*
X148830000Y-130905000D01*
X148830000Y-130905000D02*
X142734000Y-130905000D01*
X142734000Y-130905000D02*
X141990000Y-130161000D01*
X141990000Y-130161000D02*
X141990000Y-129338000D01*
X141990000Y-129338000D02*
X141112000Y-128460000D01*
X141112000Y-128460000D02*
X140326000Y-128460000D01*
X140326000Y-128460000D02*
X139537000Y-127671000D01*
X139537000Y-127671000D02*
X139537000Y-125833000D01*
X139537000Y-125833000D02*
X140720000Y-124650000D01*
%TD*%
M02*
